<svg width="742" height="212" viewBox="0 0 742 212" fill="none" xmlns="http://www.w3.org/2000/svg">
<path d="M651.6 202.686C653.5 202.686 656.87 200.246 658.42 199.346C660.741 198.022 662.963 196.531 665.07 194.886C668.07 192.486 669.65 189.886 671.39 186.796C673.56 182.876 677.33 180.036 680.79 176.996L693.53 165.796C697.53 162.236 701.59 158.656 705.66 155.126C706.789 153.952 708.314 153.239 709.94 153.126C720.38 151.746 731.03 151.986 741.55 152.256C743.06 147.596 739.28 142.166 733.85 141.206C728.42 140.246 722.51 143.956 721.85 148.756C724.23 142.846 717.61 136.376 710.47 135.896C703.33 135.416 696.66 139.256 691.88 143.896C693.75 139.896 695.66 135.826 695.48 131.536C695.3 127.246 692.48 122.746 687.7 121.666C682.92 120.586 677.27 124.666 678.78 128.766C679.978 125.023 680.3 121.055 679.721 117.167C679.142 113.28 677.677 109.578 675.44 106.346C673.96 104.156 671.67 100.166 669.24 98.6663C668.443 98.2744 667.575 98.0475 666.688 97.9994C665.802 97.9513 664.914 98.0829 664.08 98.3863C657.39 100.266 654.08 109.386 659.62 113.746C657.4 108.856 651.62 98.7463 644.55 98.4463C635.55 98.0863 632.41 109.296 633.4 115.146C634.27 120.296 634.77 125.436 636.31 130.496C636.51 127.136 632.88 123.996 629.03 124.206C625.18 124.416 622.03 127.926 622.7 131.206C624.57 126.076 620.45 119.936 614.43 118.856C608.41 117.776 601.86 122.016 601.28 127.366C604.98 120.006 595.56 111.306 586.43 112.276C577.3 113.246 570.66 121.046 569.33 129.006C570.636 127.074 571.218 124.742 570.973 122.422C570.728 120.102 569.671 117.943 567.99 116.326C566.059 114.622 563.692 113.491 561.153 113.058C558.615 112.625 556.006 112.908 553.62 113.876C558.51 113.476 562.13 108.506 560.48 104.466C558.83 100.426 551.55 94.8663 547.48 97.2763C553.88 95.2263 556.23 86.9963 551.69 82.5463C547.15 78.0963 537.54 79.2063 534.48 84.5463C533.93 79.6263 532.17 74.3763 527.55 71.5463C522.93 68.7163 514.98 70.1063 513.74 74.9163C512.02 71.1063 505.29 71.0563 501.91 73.9163C498.53 76.7763 493.67 79.3063 492.91 83.3463C490.34 81.4363 489.5 78.3463 488.25 75.6163C487 72.8863 484.66 70.0063 481.25 69.9163C479.965 69.9469 478.713 70.3307 477.632 71.0257C476.55 71.7207 475.681 72.7 475.12 73.8563C474.06 76.0163 474.23 76.8563 474.2 79.2363C474.81 71.6963 468.52 64.1863 460.13 62.4163C451.74 60.6463 442.22 64.8463 438.85 71.8063C439.809 71.1908 440.616 70.3652 441.209 69.392C441.803 68.4188 442.167 67.3235 442.275 66.1887C442.383 65.054 442.232 63.9096 441.832 62.842C441.433 61.7744 440.796 60.8116 439.97 60.0263C436.43 56.8263 429.64 57.1263 426.48 60.6263C432.24 59.7763 434.25 52.3663 430.48 48.5063C426.71 44.6463 419.53 44.4363 414.41 46.8863C409.29 49.3363 405.87 53.8163 403.26 58.3763C409 48.8463 414.89 38.7463 414.39 27.9763C413.89 17.2063 404.39 5.97629 392.07 6.46629C384.99 6.74629 378.67 10.7963 374.56 15.8463C372.151 18.9216 370.176 22.3133 368.69 25.9263C367.92 27.6963 367.33 29.5363 366.54 31.3063C366.17 32.1363 365.74 32.9063 365.42 33.7363C364.37 36.4563 363 42.8563 364.17 45.6063C359.5 34.6063 349.93 25.2363 337.94 19.9563C333.62 18.0563 328.5 16.6663 324.03 18.2663C318.92 20.1063 316.46 25.1463 315.08 29.8163C310.642 45.1715 312.438 61.6574 320.08 75.6963C315.49 69.6963 310.57 63.5063 303.18 60.3463C298.763 58.5031 293.857 58.1863 289.24 59.4463C287.162 60.0038 285.239 61.0301 283.62 62.4463C282.84 63.1463 282.17 63.9463 281.43 64.6563C279.65 66.3663 278.67 68.2263 277.23 70.1763C282.98 62.4363 276.13 50.2663 265.62 49.5263C266.86 40.7663 253.55 33.5263 245.11 38.3563C246.66 33.3563 237.47 30.4463 232.98 33.7463C228.49 37.0463 227.98 42.8463 227.87 47.9763C223.958 33.3785 217.048 19.7557 207.58 7.97628C204.65 4.31628 200.91 0.506292 195.83 0.0462923C188.94 -0.573708 183.63 5.14629 180.33 10.4763C172.547 22.9357 167.888 37.0902 166.75 51.7363C163.63 48.1363 157.52 46.8063 152.83 48.7363C148.14 50.6663 140.5 54.1463 141.64 58.5563C141.8 55.4963 139.14 52.5063 135.71 51.8963C132.28 51.2863 124.53 50.5663 123.29 53.4363C121.43 49.5763 119.41 45.6763 116.13 42.6263C112.85 39.5763 108.05 37.4763 103.32 38.1463C98.5897 38.8163 94.4597 42.8663 95.3197 46.9863C93.2397 41.9863 86.8197 37.4563 80.8197 36.3563C77.5597 29.5063 68.3297 25.7363 59.9097 26.5963C51.4897 27.4563 44.0597 32.2163 39.0797 38.2163C34.0997 44.2163 31.2697 51.3563 28.9897 58.5063C22.2497 80.0463 6.98971 97.8263 2.30971 119.786C-0.690292 133.976 -1.95029 149.456 6.03971 162.086C16.0397 177.916 37.5897 184.876 57.6497 189.286C116.7 202.236 178.11 203.816 238.96 205.286C353.53 208.156 468.12 211.016 582.73 211.386C606.15 211.506 630.39 211.316 651.6 202.686Z" fill="url(#paint0_linear_605_92)"/>
<defs>
<linearGradient id="paint0_linear_605_92" x1="369.77" y1="10.2963" x2="371.44" y2="198.676" gradientUnits="userSpaceOnUse">
<stop offset="0.12" stop-color="#9CC700"/>
<stop offset="1" stop-color="#1F7209"/>
</linearGradient>
</defs>
</svg>
