<svg width="577" height="164" viewBox="0 0 577 164" fill="none" xmlns="http://www.w3.org/2000/svg">
<path d="M70.2189 157.236C68.7412 157.236 66.1201 155.343 64.9146 154.645C63.1093 153.618 61.3808 152.461 59.7426 151.185C57.4093 149.323 56.1805 147.306 54.8272 144.909C53.1395 141.868 50.2074 139.665 47.5164 137.307L37.6079 128.618C34.4969 125.857 31.3392 123.079 28.1738 120.341C27.2954 119.43 26.1091 118.877 24.845 118.789C16.7253 117.719 8.44226 117.905 0.260342 118.115C-0.914059 114.499 2.02584 110.287 6.24902 109.542C10.4722 108.798 15.0687 111.676 15.582 115.399C13.731 110.815 18.8797 105.795 24.4328 105.423C29.9859 105.051 35.1735 108.03 38.8911 111.629C37.4367 108.526 35.9513 105.369 36.0913 102.041C36.2312 98.7127 38.4245 95.2218 42.1421 94.384C45.8598 93.5462 50.2541 96.7113 49.0797 99.8919C48.1478 96.9881 47.8974 93.9095 48.3478 90.8939C48.7982 87.8782 49.9374 85.0061 51.6773 82.4993C52.8284 80.8004 54.6095 77.7051 56.4994 76.5415C57.1191 76.2374 57.7941 76.0615 58.4837 76.0242C59.1734 75.9868 59.8635 76.0889 60.5125 76.3243C65.7157 77.7827 68.2901 84.8576 63.9813 88.24C65.7079 84.4465 70.2033 76.6035 75.702 76.3708C82.7018 76.0915 85.1439 84.7878 84.3739 89.326C83.6973 93.3212 83.3084 97.3086 82.1107 101.234C81.9551 98.6274 84.7784 96.1915 87.7727 96.3544C90.767 96.5173 93.2169 99.2403 92.6958 101.785C91.2414 97.8051 94.4458 93.0419 99.1278 92.2041C103.81 91.3663 108.904 94.6555 109.355 98.8058C106.478 93.0962 113.804 86.3471 120.905 87.0996C128.006 87.8521 133.17 93.903 134.204 100.078C133.188 98.5788 132.736 96.7698 132.926 94.9701C133.117 93.1705 133.939 91.4958 135.246 90.2414C136.748 88.9196 138.589 88.0416 140.564 87.7058C142.538 87.3701 144.567 87.59 146.423 88.3408C142.62 88.0305 139.804 84.175 141.087 81.0409C142.371 77.9068 148.033 73.5936 151.198 75.4632C146.221 73.8729 144.393 67.4884 147.924 64.0362C151.455 60.5841 158.929 61.4452 161.309 65.5877C161.737 61.771 163.105 57.6982 166.699 55.5028C170.292 53.3074 176.475 54.3857 177.439 58.1172C178.777 55.1615 184.011 55.1227 186.64 57.3414C189.269 59.5601 193.049 61.5228 193.64 64.6568C195.639 63.1751 196.292 60.778 197.264 58.6602C198.236 56.5424 200.056 54.3082 202.708 54.2383C203.708 54.2621 204.681 54.5599 205.522 55.099C206.363 55.6382 207.039 56.3979 207.476 57.2948C208.3 58.9705 208.168 59.6221 208.192 61.4684C207.717 55.6192 212.609 49.7932 219.134 48.4201C225.66 47.047 233.064 50.3052 235.685 55.7045C234.939 55.227 234.311 54.5866 233.85 53.8316C233.388 53.0767 233.105 52.2269 233.021 51.3467C232.937 50.4664 233.055 49.5786 233.365 48.7504C233.676 47.9222 234.171 47.1753 234.814 46.5661C237.567 44.0836 242.848 44.3164 245.306 47.0315C240.826 46.3721 239.263 40.6237 242.195 37.6293C245.127 34.6349 250.711 34.4719 254.693 36.3726C258.675 38.2732 261.335 41.7486 263.365 45.2861C258.901 37.8931 254.32 30.0579 254.709 21.7029C255.098 13.348 262.486 4.63617 272.068 5.0163C277.575 5.23351 282.49 8.37535 285.686 12.2929C287.56 14.6786 289.096 17.3098 290.252 20.1126C290.851 21.4857 291.31 22.9131 291.924 24.2862C292.212 24.9301 292.546 25.5274 292.795 26.1713C293.612 28.2814 294.677 33.2462 293.767 35.3796C297.399 26.8462 304.842 19.5773 314.168 15.4813C317.528 14.0074 321.51 12.9291 324.986 14.1703C328.96 15.5977 330.874 19.5075 331.947 23.1303C335.399 35.0423 334.001 47.8315 328.058 58.7222C331.628 54.0677 335.455 49.2657 341.202 46.8143C344.638 45.3844 348.453 45.1387 352.044 46.1161C353.66 46.5486 355.155 47.3447 356.415 48.4434C357.022 48.9864 357.543 49.6071 358.118 50.1578C359.503 51.4844 360.265 52.9273 361.385 54.4401C356.913 48.4357 362.24 38.9946 370.414 38.4206C369.45 31.6249 379.802 26.0084 386.366 29.7553C385.161 25.8765 392.308 23.6191 395.8 26.1791C399.292 28.7391 399.689 33.2385 399.775 37.2181C402.817 25.8937 408.191 15.3257 415.555 6.18769C417.834 3.34841 420.743 0.392762 424.694 0.0359118C430.052 -0.44506 434.182 3.99229 436.749 8.1271C442.802 17.7926 446.425 28.7731 447.311 40.135C449.737 37.3423 454.489 36.3105 458.137 37.8077C461.784 39.3049 467.726 42.0046 466.84 45.4257C466.715 43.0519 468.784 40.7324 471.452 40.2591C474.12 39.7859 480.147 39.2274 481.112 41.4538C482.558 38.4594 484.129 35.4339 486.68 33.0678C489.231 30.7018 492.964 29.0727 496.643 29.5924C500.322 30.1122 503.534 33.254 502.865 36.4501C504.483 32.5713 509.476 29.0571 514.143 28.2038C516.678 22.8898 523.857 19.9652 530.405 20.6324C536.954 21.2995 542.733 24.9921 546.606 29.6467C550.479 34.3013 552.68 39.8402 554.453 45.3869C559.695 62.0968 571.564 75.8899 575.204 92.9256C577.537 103.934 578.517 115.942 572.303 125.74C564.525 138.021 547.765 143.42 532.163 146.841C486.237 156.887 438.475 158.113 391.149 159.253C302.043 161.48 212.92 163.698 123.782 163.985C105.568 164.078 86.7149 163.931 70.2189 157.236Z" fill="url(#paint0_linear_605_109)"/>
<defs>
<linearGradient id="paint0_linear_605_109" x1="289.412" y1="7.98746" x2="288.12" y2="154.125" gradientUnits="userSpaceOnUse">
<stop offset="0.12" stop-color="#9CC700"/>
<stop offset="1" stop-color="#1F7209"/>
</linearGradient>
</defs>
</svg>
