<svg width="1920" height="441" viewBox="0 0 1920 441" fill="none" xmlns="http://www.w3.org/2000/svg">
<path d="M496.219 157.236C494.741 157.236 492.12 155.343 490.915 154.645C489.109 153.618 487.381 152.461 485.743 151.185C483.409 149.323 482.18 147.306 480.827 144.909C479.139 141.868 476.207 139.665 473.516 137.307L463.608 128.618C460.497 125.857 457.339 123.079 454.174 120.341C453.295 119.43 452.109 118.877 450.845 118.789C442.725 117.719 434.442 117.905 426.26 118.115C425.086 114.499 428.026 110.287 432.249 109.542C436.472 108.798 441.069 111.676 441.582 115.399C439.731 110.815 444.88 105.795 450.433 105.423C455.986 105.051 461.173 108.03 464.891 111.629C463.437 108.526 461.951 105.369 462.091 102.041C462.231 98.7127 464.424 95.2218 468.142 94.384C471.86 93.5462 476.254 96.7113 475.08 99.8919C474.148 96.9881 473.897 93.9095 474.348 90.8939C474.798 87.8782 475.937 85.0061 477.677 82.4993C478.828 80.8004 480.609 77.7051 482.499 76.5415C483.119 76.2374 483.794 76.0615 484.484 76.0242C485.173 75.9868 485.863 76.0889 486.512 76.3243C491.716 77.7827 494.29 84.8576 489.981 88.24C491.708 84.4465 496.203 76.6035 501.702 76.3708C508.702 76.0915 511.144 84.7878 510.374 89.326C509.697 93.3212 509.308 97.3086 508.111 101.234C507.955 98.6274 510.778 96.1915 513.773 96.3544C516.767 96.5173 519.217 99.2403 518.696 101.785C517.241 97.8051 520.446 93.0419 525.128 92.2041C529.81 91.3663 534.904 94.6555 535.355 98.8058C532.477 93.0962 539.804 86.3471 546.905 87.0996C554.006 87.8521 559.17 93.903 560.204 100.078C559.188 98.5788 558.736 96.7698 558.926 94.9701C559.117 93.1705 559.939 91.4958 561.246 90.2414C562.748 88.9196 564.589 88.0416 566.564 87.7058C568.538 87.3701 570.567 87.59 572.423 88.3408C568.619 88.0305 565.804 84.175 567.087 81.0409C568.371 77.9068 574.033 73.5936 577.198 75.4632C572.22 73.8729 570.393 67.4884 573.924 64.0362C577.455 60.5841 584.929 61.4452 587.309 65.5877C587.737 61.771 589.105 57.6982 592.699 55.5028C596.292 53.3074 602.475 54.3857 603.439 58.1172C604.777 55.1615 610.011 55.1227 612.64 57.3414C615.269 59.5601 619.049 61.5228 619.64 64.6568C621.639 63.1751 622.292 60.778 623.264 58.6602C624.236 56.5424 626.056 54.3082 628.708 54.2383C629.708 54.2621 630.681 54.5599 631.522 55.099C632.363 55.6382 633.039 56.3979 633.476 57.2948C634.3 58.9705 634.168 59.6221 634.192 61.4684C633.717 55.6192 638.609 49.7932 645.134 48.4201C651.66 47.047 659.064 50.3052 661.685 55.7045C660.939 55.227 660.311 54.5866 659.85 53.8316C659.388 53.0767 659.105 52.2269 659.021 51.3467C658.937 50.4664 659.055 49.5786 659.365 48.7504C659.676 47.9222 660.171 47.1753 660.814 46.5661C663.567 44.0836 668.848 44.3164 671.306 47.0315C666.826 46.3721 665.263 40.6237 668.195 37.6293C671.127 34.6349 676.711 34.4719 680.693 36.3726C684.675 38.2732 687.335 41.7486 689.365 45.2861C684.901 37.8931 680.32 30.0579 680.709 21.7029C681.098 13.348 688.486 4.63617 698.068 5.0163C703.575 5.23351 708.49 8.37535 711.686 12.2929C713.56 14.6786 715.096 17.3098 716.252 20.1126C716.851 21.4857 717.31 22.9131 717.924 24.2862C718.212 24.9301 718.546 25.5274 718.795 26.1713C719.612 28.2814 720.677 33.2462 719.767 35.3796C723.399 26.8462 730.842 19.5773 740.168 15.4813C743.527 14.0074 747.51 12.9291 750.986 14.1703C754.96 15.5977 756.874 19.5075 757.947 23.1303C761.399 35.0423 760.001 47.8315 754.058 58.7222C757.628 54.0677 761.455 49.2657 767.202 46.8143C770.637 45.3844 774.453 45.1387 778.044 46.1161C779.66 46.5486 781.155 47.3447 782.415 48.4434C783.022 48.9864 783.543 49.6071 784.118 50.1578C785.503 51.4844 786.265 52.9273 787.385 54.4401C782.913 48.4357 788.24 38.9946 796.414 38.4206C795.45 31.6249 805.802 26.0084 812.366 29.7553C811.161 25.8765 818.308 23.6191 821.8 26.1791C825.292 28.7391 825.689 33.2385 825.774 37.2181C828.817 25.8937 834.191 15.3257 841.555 6.18769C843.834 3.34841 846.743 0.392762 850.694 0.0359118C856.052 -0.44506 860.182 3.99229 862.749 8.1271C868.802 17.7926 872.425 28.7731 873.31 40.135C875.737 37.3423 880.489 36.3105 884.137 37.8077C887.784 39.3049 893.726 42.0046 892.84 45.4257C892.715 43.0519 894.784 40.7324 897.452 40.2591C900.12 39.7859 906.147 39.2274 907.111 41.4538C908.558 38.4594 910.129 35.4339 912.68 33.0678C915.231 30.7018 918.964 29.0727 922.643 29.5924C926.322 30.1122 929.534 33.254 928.865 36.4501C930.483 32.5713 935.476 29.0571 940.142 28.2038C942.678 22.8898 949.857 19.9652 956.405 20.6324C962.954 21.2995 968.733 24.9921 972.606 29.6467C976.479 34.3013 978.68 39.8402 980.453 45.3869C985.695 62.0968 997.564 75.8899 1001.2 92.9256C1003.54 103.934 1004.52 115.942 998.303 125.74C990.525 138.021 973.765 143.42 958.163 146.841C912.237 156.887 864.475 158.113 817.149 159.253C728.043 161.48 638.92 163.698 549.782 163.985C531.568 164.078 512.715 163.931 496.219 157.236Z" fill="url(#paint0_linear_605_90)"/>
<path d="M1111.19 214.19C1111.32 214.19 1111.45 214.19 1111.57 214.25C1111.45 214.212 1111.32 214.192 1111.19 214.19V214.19Z" fill="url(#paint1_linear_605_90)"/>
<path d="M381.25 90.12C368.057 92.32 354.88 94.54 341.72 96.78C317.347 100.927 293.013 105.16 268.72 109.48C256.84 111.6 244.85 114.36 232.82 115.89C229.27 116.34 226.03 115.82 222.5 115.84C217.08 115.84 211.5 117.12 206.23 117.96C160.056 125.197 114.535 136.112 70.1 150.6C57.1 154.86 42.38 161.43 41.85 171.85C41.25 183.55 58.75 190.66 73.95 193.74C80.6 195.08 86.54 197.21 93.43 198.04C99.4736 198.762 105.575 198.869 111.64 198.36C102.56 194.31 95.4 187.95 91.64 180.6C99.86 185.647 108.06 190.71 116.24 195.79C116.349 191.57 118.025 187.543 120.94 184.49L127.39 200.12C130.07 199.43 132.797 198.942 135.55 198.66C137.38 198.57 139.11 199.03 140.93 199.09C146.93 199.32 153.38 198.5 159.34 197.91C157.845 198.282 156.383 198.777 154.97 199.39L146.1 202.39L130.68 207.66C123.04 210.26 115.41 212.96 107.68 215.39C103.83 216.6 100.07 218.03 96.41 219.54C89.1932 222.481 82.2127 225.971 75.53 229.98C71.03 232.69 66.34 236.45 67.44 240.65C68.54 244.85 74.65 246.94 80.06 248.24C99.0924 252.776 118.575 255.155 138.14 255.33C136.532 253.64 135.31 251.622 134.559 249.413C133.808 247.205 133.545 244.86 133.79 242.54C139.65 247.36 145.503 252.187 151.35 257.02C151.232 255.232 151.503 253.439 152.145 251.766C152.788 250.093 153.786 248.58 155.07 247.33C157.55 251.957 160.023 256.593 162.49 261.24C162.81 259.29 166.16 258.36 168.68 258.9C171.2 259.44 173.13 260.9 175.24 262.04C180.324 264.681 186.049 265.838 191.76 265.38C194.241 265.041 196.746 264.9 199.25 264.96C202.65 265.24 206.11 265.1 209.52 265.1C248.44 265.1 290.67 267.36 328.39 263.26C308.942 265.386 289.779 269.593 271.23 275.81C267.34 277.12 262.55 278.11 258.78 279.64C255.47 280.98 252.89 283.74 250.34 285.76C247.007 288.387 243.673 291.027 240.34 293.68C249.03 298.36 258.44 303.93 269.25 305.17C274.52 305.77 279.43 307.76 284.46 309.04C295.937 311.951 307.65 313.842 319.46 314.69C312.436 308.801 307.011 301.234 303.69 292.69C310.21 300.099 317.686 306.609 325.92 312.05C326.76 306.717 327.603 301.383 328.45 296.05C334.63 301.79 330.8 311.05 336.45 317.13C340.08 321.04 346.53 322.45 352.54 322.65C357.479 322.9 362.39 323.535 367.23 324.55C374.04 325.8 381.41 325.68 388.38 325.88C396.32 326.1 404.263 326.207 412.21 326.2C430 326.2 447.79 325.74 465.56 325.29C477.34 324.99 489.11 324.69 500.89 324.52C506.07 324.45 511.41 324.76 516.58 324.25C519.277 323.936 521.921 323.263 524.44 322.25C531.82 319.45 539.36 319.47 547.23 318.05C542.07 314.32 536.08 311.14 530.8 307.46C525.36 303.68 520.137 299.723 515.13 295.59C527.09 300.405 538.534 306.412 549.29 313.52C548.49 306.81 550.82 299.91 555.78 294.3C557.516 296.827 558.697 299.693 559.243 302.71C559.789 305.726 559.69 308.825 558.95 311.8C561.32 305.35 567.76 299.8 575.95 297.24C573.89 304.7 571.847 312.157 569.82 319.61C570.04 318.79 590.97 319.12 593.09 319.13C601.01 319.13 608.923 319.28 616.83 319.58C624.737 319.88 632.627 320.357 640.5 321.01C645.44 321.41 648.4 322.46 652.92 321.36C656.15 320.56 659.6 320.13 662.92 319.55L683.36 315.96C681.671 314.017 680.627 311.597 680.375 309.035C680.122 306.473 680.673 303.895 681.95 301.66C685.001 308.362 689.431 314.345 694.95 319.22C697.421 315.006 701.119 311.646 705.55 309.59C705.231 311.163 705.427 312.797 706.11 314.25C706.635 315.06 707.396 315.691 708.289 316.057C709.183 316.424 710.167 316.508 711.11 316.3C713.83 315.59 714.18 312.58 716.62 311.41C719.33 310.12 723.09 312.02 723.85 314.41C724.61 316.8 723.36 319.21 722.14 321.46C727.77 321.2 733.44 321.06 739.06 320.68C740.91 320.56 742.41 320.02 744.19 319.75C746.941 319.469 749.705 319.329 752.47 319.33C799.72 317.21 847.02 315.11 894.38 315.38C902.887 315.42 911.39 315.55 919.89 315.77C926.57 315.94 933.33 316.47 940.01 316.42C941.269 316.422 942.526 316.328 943.77 316.14C945.77 315.83 947.56 315.28 949.57 315.14C956.62 314.56 964.13 315.14 971.22 315.25C968.495 312.655 966.608 309.305 965.8 305.63C968.3 306.69 969.12 309.05 970.31 311.02C971.5 312.99 974.19 315.02 976.85 314.19C980.27 313.14 979.48 308.82 982.54 307.25C985.03 305.98 988.64 307.49 989.74 309.6C990.84 311.71 990.21 314.1 989.56 316.32C992.021 314.409 994.956 313.206 998.05 312.84C1001.3 312.53 1004.9 313.54 1006.51 315.71C1008.12 317.88 1007.03 321.1 1003.98 322C1011.81 322.78 1019.64 323.66 1027.48 324.36C1032.54 324.82 1036.97 323.64 1041.94 323.62C1049.53 323.62 1057.39 324.84 1064.94 325.51L1088.65 327.63C1112.51 329.75 1136.37 331.79 1160.29 333.41L1163.83 333.65C1183.09 334.92 1202.37 335.89 1221.69 336.41C1231.54 336.67 1241.4 336.803 1251.26 336.81C1260.78 336.81 1270.43 336.91 1279.93 336.38C1281.14 336.31 1282.23 336.05 1283.4 335.89C1284.85 335.782 1286.31 335.819 1287.75 336C1291.17 336.208 1294.61 336.063 1298 335.57C1302.36 334.953 1306.62 333.714 1310.63 331.89C1299.35 317.12 1293.63 299.89 1294.39 282.89C1300.6 295.363 1307.99 307.207 1316.47 318.26C1316.37 310.81 1319.8 303.36 1326.03 297.61C1326.68 306.246 1325.84 314.93 1323.54 323.28C1330.69 315.28 1338.72 306.72 1350.88 303.65C1347.94 310.657 1345.01 317.657 1342.08 324.65C1341.53 325.97 1340.99 327.45 1341.78 328.65C1342.69 330.07 1344.94 330.65 1346.96 330.95C1354.52 332.243 1362.23 332.458 1369.86 331.59C1374.76 330.98 1378.62 328.59 1383.6 328.07C1391.23 327.33 1398.91 326.82 1406.6 326.07C1421.24 324.64 1435.83 322.84 1450.25 320.42C1464.56 318.073 1478.74 314.962 1492.72 311.1L1493.55 310.86C1497.1 309.86 1500.7 308.76 1503.55 306.86C1506.4 304.96 1508.47 302.15 1507.99 299.3C1507.51 296.45 1504.85 294.3 1502.21 292.3C1485.06 279.59 1463.48 270.3 1440.21 265.52C1442.2 265.808 1444.2 265.995 1446.21 266.08L1453.39 266.73C1458.57 267.203 1463.75 267.667 1468.94 268.12C1478.94 268.993 1488.92 269.827 1498.88 270.62C1518.34 272.18 1537.77 273.97 1557.2 275.7C1567.12 276.57 1577.04 277.44 1586.97 278.24C1591.52 278.6 1596.08 279.03 1600.64 279.24C1601.48 279.295 1602.31 279.295 1603.15 279.24C1605.7 279.06 1607.97 278.37 1610.6 278.34L1622.6 278.2L1628.6 278.13C1619.47 276.63 1611.32 271.95 1606.97 265.71C1614.92 269.57 1622.85 273.433 1630.77 277.3C1630.92 275.47 1631.13 273.52 1632.62 272.08C1634.11 270.64 1637.39 270.08 1638.94 271.52C1640.49 272.96 1639.45 274.92 1638.41 276.52C1643.64 273.537 1649.09 270.953 1654.71 268.79C1656.86 267.95 1659.96 267.33 1661.34 268.79C1662.18 269.71 1661.83 270.96 1661.34 272.01C1659.57 275.831 1656.92 279.179 1653.61 281.78C1654.11 281.36 1657.37 281.45 1658.16 281.38L1663.16 280.94L1673 280.1C1675.91 279.85 1679.36 279.15 1682.27 279.44C1685.14 279.621 1688.02 279.588 1690.88 279.34C1697.88 278.98 1704.88 278.18 1711.88 278.22C1717.06 278.22 1722.24 278.22 1727.41 277.95C1737.72 277.477 1748 276.422 1758.19 274.79C1778.14 271.727 1797.65 266.313 1816.33 258.66C1818.87 257.6 1821.33 256.49 1823.85 255.35C1828.48 253.22 1833.4 250.49 1834.25 246.47C1834.93 243.23 1832.73 240.04 1830.32 237.27C1822.22 227.95 1810.94 220.15 1797.82 214.83C1807.86 215.485 1817.93 215.635 1827.98 215.28C1831 215.331 1834.02 215.045 1836.98 214.43C1840.33 213.56 1844.31 214.04 1847.82 214.08C1848.92 214.08 1850.2 214.08 1850.82 213.4C1851.73 212.53 1850.92 211.28 1850.15 210.33C1845.78 205.059 1843.53 198.342 1843.86 191.5C1849.57 197.157 1854.38 203.664 1858.1 210.79C1860.25 205.94 1865.9 202.06 1872.59 200.85C1871.1 204.183 1869.61 207.517 1868.13 210.85C1868.31 210.44 1873.13 209.85 1873.83 209.74L1879.76 208.58C1883.52 207.85 1887.34 207.22 1891.02 206.32C1898.51 204.493 1905.89 202.443 1913.17 200.17C1915.09 199.57 1917.01 198.96 1918.91 198.34L1919.91 198.02V156.43L1917.84 155.65C1892.06 146.13 1865.77 137.383 1838.96 129.41C1831.38 127.15 1822.88 125.52 1815.78 122.5C1814.29 121.745 1812.75 121.104 1811.17 120.58C1799.98 117.58 1786.67 116.76 1774.98 115.06C1750.56 111.487 1726.08 108.13 1701.55 104.99C1652.48 98.7033 1603.23 93.26 1553.8 88.66C1534.57 86.88 1514.68 83.4 1495.33 85.66C1486.48 86.71 1478.61 85.74 1469.86 84.38C1445.38 80.5866 1420.86 76.8733 1396.31 73.24C1358.01 67.58 1319.63 62.1233 1281.16 56.87C1300.65 57.1833 1320.14 57.5733 1339.61 58.04C1326.28 57.5 1312.92 56.98 1299.54 56.48C1282.41 55.8533 1265.28 55.2766 1248.15 54.75C1239.62 54.48 1231.09 54.17 1222.56 53.99C1219.38 53.93 1216.56 54.37 1213.38 53.84C1212.38 53.67 1200.94 52.1 1200.96 52.75C1200.96 51.21 1200.85 49.67 1200.8 48.14C1197.38 48.1054 1194 48.7866 1190.86 50.14C1190.47 46.9066 1190.07 43.6766 1189.68 40.45C1185.87 42.9759 1183 46.6979 1181.54 51.03C1176.9 48.2028 1173.07 44.2241 1170.42 39.48C1170.34 44.2207 1171.62 48.8853 1174.11 52.92C1169.33 51.92 1165.19 52.62 1160.41 52.81C1155.2 53.02 1149.41 52.21 1144.21 52.11C1094.95 51.1566 1045.69 50.6066 996.42 50.46C991.78 50.46 987.42 50.27 982.92 49.83C977.92 49.35 972.21 50.43 967.26 50.83C966.83 49.09 966.41 47.34 965.98 45.6C962.378 46.3163 959.038 47.9998 956.32 50.47C954.534 47.9914 951.931 46.2212 948.97 45.47L953.97 50.58L949.32 50.91C946.196 51.1379 943.057 51.0542 939.95 50.66C931.48 49.66 921.95 50.66 913.34 50.66C902.287 50.7333 891.233 50.8233 880.18 50.93C834.127 51.39 788.083 52.2033 742.05 53.37C688.31 54.7033 634.59 56.5333 580.89 58.86C563.323 61.4266 545.77 64.0433 528.23 66.71C479.083 74.19 430.09 81.9933 381.25 90.12ZM535.25 143.27C536.76 137.99 542.17 133.21 549.4 130.79C550.04 130.58 550.08 142.88 550.03 143.87C564.33 142.2 577.96 138.6 592.45 137.47C613.99 135.78 635.62 134.68 657.22 133.62C700.58 131.48 744 130.16 787.4 129.34C801.72 129.073 816.053 128.85 830.4 128.67C827.71 128.21 827.83 128.99 825.14 128.53C825.41 126.28 831.38 125.2 836.22 124.71C855.507 122.75 874.84 121.023 894.22 119.53C903.933 118.783 913.653 118.093 923.38 117.46C927.61 117.19 931.79 116.7 935.97 117.04C943.276 117.553 950.618 116.966 957.75 115.3C952.89 114.3 950.27 110.03 952.65 107.01C956.501 111.812 961.258 115.811 966.65 118.78C968.983 114.52 971.29 110.257 973.57 105.99C975.45 109.683 977.323 113.377 979.19 117.07C979.743 114.842 980.831 112.782 982.36 111.07C983.428 110.051 984.698 109.267 986.088 108.771C987.479 108.275 988.958 108.077 990.43 108.19C993.61 108.46 996.26 110.86 994.95 112.82C1005.83 112.82 1016.72 113.31 1027.52 113.1C1089.87 111.88 1156.8 111.43 1218.09 118.69C1228.09 119.87 1237.92 121.36 1247.42 123.28C1251.42 124.09 1256.42 124.85 1259.82 126.28C1264.36 128.13 1262.98 130.5 1261.13 132.71C1256.13 138.62 1245.49 143.34 1231.71 144.71C1237.29 144.16 1244.22 144.57 1249.98 144.56C1257.31 144.56 1264.65 144.577 1271.98 144.61C1307.45 144.9 1343.13 144.44 1379.2 146.61C1428.09 149.56 1476.97 152.87 1525.61 157.72C1534.74 158.63 1545.31 158.16 1552.61 162.17C1554.98 163.46 1560.04 164.79 1561.61 162.17C1562.44 160.78 1561.06 159.26 1559.92 157.94C1555.84 153.22 1554.37 147.54 1555.92 142.27C1559.3 147.537 1562.67 152.803 1566.02 158.07C1567.42 154.19 1571.37 150.8 1576.64 148.97C1576.4 153.282 1574.95 157.44 1572.46 160.97C1574.69 158.75 1579.83 158.04 1583.03 159.75C1586.23 161.46 1586.03 165.36 1582.52 166.55C1585.09 165.69 1590.65 166.34 1593.46 166.55C1597.28 166.83 1600.85 167.64 1604.61 168.12C1606.91 168.42 1609.14 168.26 1611.45 168.38C1615.39 168.719 1619.3 169.266 1623.18 170.02C1650.1 174.23 1677.25 179.66 1698.93 188.84C1704.29 191.11 1709.61 193.94 1710.02 197.11C1710.29 199.16 1708.41 201.03 1705.86 202.53C1700.1 205.733 1693.61 207.364 1687.02 207.26C1684.81 207.26 1664.73 209.77 1664.37 208.26C1663.75 205.58 1663.12 202.91 1662.5 200.26C1658.43 201.38 1655.39 203.98 1654.68 206.93C1652.38 203.277 1650.07 199.61 1647.76 195.93C1644.6 199.21 1650.16 204.08 1647.43 207.53C1644.5 211.23 1637.25 209.33 1632.43 209.53C1616.99 210.12 1601.1 209.34 1585.61 208.82C1572.09 208.36 1558.59 207.73 1545.1 206.93C1582.59 209.621 1619.92 214.22 1656.95 220.71C1666.27 222.36 1676.88 224.78 1679.86 229.24C1682.84 233.7 1677.27 236.66 1671.95 238.24C1654.43 243.55 1632.26 243.51 1613.34 244.05C1585.16 244.86 1556.9 244.63 1528.72 244.23C1514.92 244.043 1501.13 243.8 1487.34 243.5C1481.02 243.37 1474.49 243.57 1468.34 242.61C1466.06 242.23 1440.17 240.76 1440.14 240.83L1448.14 226.89C1448.67 225.96 1449.14 224.75 1448.01 224.07C1447.12 223.676 1446.13 223.561 1445.17 223.74C1437.17 224.53 1430.06 228.36 1427.09 233.47C1428.05 229.804 1427.85 225.931 1426.53 222.38C1420.9 225.08 1418 230.17 1419.4 234.83C1413.48 229.957 1407.54 225.1 1401.58 220.26C1404.06 227.47 1410.68 234.03 1419.67 238.2C1394.31 242.36 1368.46 241.49 1342.51 241.13C1267.37 240.05 1191.36 237.66 1117.97 224.96C1111.97 223.96 1105.38 222.55 1102.83 219.79C1100.83 217.6 1103.83 214.63 1108.15 214.09C1106.5 214.09 1104.88 214.09 1104.69 214.09L1093.83 213.99C1091.83 213.99 1090.11 213.86 1088.22 213.79C1085.85 213.71 1083.64 213.71 1081.22 213.79C1055.22 214.65 1029.16 215.18 1003.11 215.79C959.11 216.88 915.51 216.79 871.83 217.41C862.38 217.54 852.95 218.02 843.63 217.19C838.91 216.76 833.63 217.83 828.93 218.31L813.12 219.94C816.282 217.045 818.9 213.608 820.85 209.79C821.6 208.28 821.7 206.08 819.44 205.69C818.375 205.597 817.305 205.791 816.34 206.25C809.708 208.777 803.587 212.48 798.27 217.18C796.447 210.982 796.771 204.35 799.19 198.36C793.31 202.71 790.4 208.82 791.38 214.64C785.38 206.973 779.353 199.307 773.3 191.64C775.555 202.16 779.92 212.114 786.13 220.9C778.13 221.14 770.13 220.9 762.13 221.27C734.84 222.55 707.47 223.43 680.13 223.57C661.13 223.67 642.13 223.41 623.13 222.66C613.63 222.287 604.14 221.787 594.66 221.16C591.342 221.11 588.072 220.363 585.06 218.97C584.22 218.6 574.23 217.04 574.63 218.55C573.477 214.25 572.323 209.953 571.17 205.66C567.01 207.1 563.93 209.92 563.1 213.03C557.487 210.23 551.863 207.44 546.23 204.66C544.99 209.25 547.29 214.16 552.14 217.36C546.871 217.496 541.6 217.161 536.39 216.36C531.6 215.61 527.72 214 522.92 213.22C511.92 211.44 499.07 207.44 503.11 201.93C504.9 199.49 509.65 197.71 514.24 196.21C535.766 189.269 557.939 184.525 580.42 182.05C559.86 184.4 539.33 186.89 518.69 188.83C508.29 189.83 497.69 190.83 487.26 191.23C483.06 191.38 478.91 190.41 474.58 190.42C469.769 190.428 464.969 190.877 460.24 191.76C462.549 187.373 463.33 182.341 462.46 177.46C454.97 179.39 449.12 184.09 447.6 189.37C446.727 185.03 445.863 180.697 445.01 176.37C443.814 177.696 442.959 179.292 442.518 181.022C442.077 182.752 442.064 184.564 442.48 186.3C434.007 182.413 425.83 178.233 417.95 173.76C420.63 181.01 426.74 187.59 435.16 192.33C426.41 193.71 419.46 193.05 410.84 192.03C404.05 191.22 397.06 191.9 390.2 191.35C383.09 190.79 376.03 190.16 369.01 189.12C359.798 187.749 350.675 185.833 341.69 183.38C336.89 182.07 331.31 179.66 331.61 175.81C331.91 171.96 337.5 170.09 342.24 168.95C399.233 155.373 457.475 147.706 516.04 146.07C514.936 144.247 513.689 142.515 512.31 140.89C510.99 139.53 510.59 137.72 510 136.1C508.638 132.309 507.562 128.422 506.78 124.47C506.78 124.23 506.69 124 506.65 123.76C512.789 130.344 519.592 136.275 526.95 141.46C526.647 138.947 526.854 136.399 527.559 133.967C528.263 131.536 529.451 129.272 531.05 127.31L535.25 143.27Z" fill="url(#paint2_linear_605_90)"/>
<path d="M526.95 141.46C519.606 136.273 512.816 130.341 506.69 123.76C506.69 124 506.78 124.23 506.82 124.47C507.602 128.422 508.678 132.309 510.04 136.1C510.63 137.72 511.04 139.53 512.35 140.89C513.729 142.515 514.976 144.247 516.08 146.07C457.515 147.706 399.273 155.373 342.28 168.95C337.54 170.09 331.94 172.08 331.65 175.81C331.36 179.54 336.93 182.07 341.73 183.38C350.715 185.833 359.838 187.749 369.05 189.12C376.05 190.12 383.13 190.79 390.24 191.35C397.1 191.9 404.09 191.22 410.88 192.03C419.5 193.03 426.45 193.71 435.2 192.33C426.78 187.59 420.67 181.01 417.99 173.76C425.843 178.227 433.987 182.443 442.42 186.41C442.004 184.674 442.017 182.862 442.458 181.132C442.899 179.402 443.754 177.806 444.95 176.48C445.81 180.82 446.673 185.153 447.54 189.48C449.06 184.2 454.91 179.48 462.4 177.57C463.27 182.451 462.489 187.483 460.18 191.87C464.909 190.987 469.709 190.538 474.52 190.53C478.85 190.53 483 191.53 487.2 191.34C497.67 190.97 508.2 189.91 518.63 188.94C539.27 187 559.8 184.51 580.36 182.16C557.879 184.635 535.706 189.379 514.18 196.32C509.59 197.82 504.84 199.6 503.05 202.04C499.05 207.55 511.82 211.55 522.86 213.33C527.66 214.11 531.54 215.72 536.33 216.47C541.54 217.271 546.811 217.605 552.08 217.47C547.23 214.27 544.93 209.36 546.17 204.77C551.81 207.55 557.433 210.34 563.04 213.14C563.87 210.03 566.95 207.21 571.11 205.77C572.27 210.063 573.423 214.36 574.57 218.66C574.17 217.15 584.16 218.71 585 219.08C588.012 220.473 591.282 221.219 594.6 221.27C604.073 221.897 613.563 222.397 623.07 222.77C642.07 223.52 661.07 223.77 680.07 223.68C707.37 223.54 734.74 222.68 762.07 221.38C770.07 221 778.07 221.25 786.07 221.01C779.86 212.224 775.495 202.27 773.24 191.75C779.3 199.41 785.327 207.077 791.32 214.75C790.32 208.93 793.25 202.82 799.13 198.47C796.711 204.46 796.387 211.092 798.21 217.29C803.527 212.59 809.648 208.887 816.28 206.36C817.245 205.901 818.315 205.707 819.38 205.8C821.64 206.19 821.54 208.39 820.79 209.9C818.84 213.718 816.222 217.155 813.06 220.05L828.87 218.42C833.55 217.94 838.87 216.87 843.57 217.3C852.89 218.13 862.32 217.65 871.77 217.52C915.45 216.94 959.07 216.99 1003.05 215.9C1029.05 215.26 1055.15 214.73 1081.16 213.9C1083.58 213.82 1085.79 213.82 1088.16 213.9C1090.05 213.97 1091.8 214.09 1093.77 214.1L1104.63 214.2C1104.82 214.2 1106.44 214.2 1108.09 214.2C1109.13 214.066 1110.19 214.086 1111.23 214.26C1111.36 214.262 1111.49 214.282 1111.61 214.32C1111.49 214.32 1111.36 214.32 1111.23 214.26C1110.59 214.2 1109.34 214.19 1108.09 214.2C1103.78 214.74 1100.74 217.71 1102.77 219.9C1105.32 222.66 1111.89 224.03 1117.91 225.07C1191.3 237.77 1267.31 240.16 1342.45 241.24C1368.45 241.6 1394.25 242.47 1419.61 238.31C1410.61 234.14 1404 227.58 1401.52 220.37C1407.48 225.21 1413.42 230.067 1419.34 234.94C1417.94 230.28 1420.84 225.19 1426.47 222.49C1427.8 226.041 1427.99 229.914 1427.03 233.58C1430.03 228.47 1437.11 224.64 1445.11 223.85C1446.07 223.671 1447.06 223.786 1447.95 224.18C1449.05 224.86 1448.61 226.07 1448.08 227L1440.08 240.94C1440.08 240.87 1466 242.34 1468.28 242.72C1474.45 243.72 1480.98 243.48 1487.28 243.61C1501.06 243.903 1514.85 244.147 1528.66 244.34C1556.84 244.74 1585.1 244.97 1613.28 244.16C1632.2 243.62 1654.37 243.66 1671.89 238.35C1677.21 236.73 1682.79 233.78 1679.8 229.35C1676.81 224.92 1666.21 222.47 1656.89 220.82C1619.87 214.303 1582.54 209.677 1545.05 206.96C1538.44 206.573 1531.84 206.147 1525.23 205.68C1531.84 206.04 1538.45 206.467 1545.05 206.96C1558.54 207.753 1572.05 208.383 1585.56 208.85C1601.05 209.37 1616.94 210.15 1632.38 209.56C1637.21 209.37 1644.46 211.27 1647.38 207.56C1650.11 204.11 1644.55 199.24 1647.71 195.96C1650.03 199.613 1652.34 203.28 1654.63 206.96C1655.34 203.96 1658.38 201.41 1662.45 200.29C1663.07 202.96 1663.7 205.63 1664.32 208.29C1664.68 209.82 1684.76 207.29 1686.97 207.29C1693.56 207.394 1700.05 205.763 1705.81 202.56C1708.36 201.06 1710.24 199.19 1709.97 197.14C1709.56 193.97 1704.24 191.14 1698.88 188.87C1677.2 179.69 1650.05 174.26 1623.13 170.05C1619.25 169.296 1615.34 168.749 1611.4 168.41C1609.09 168.29 1606.86 168.41 1604.56 168.15C1600.8 167.67 1597.23 166.86 1593.41 166.58C1590.6 166.37 1585.04 165.72 1582.47 166.58C1586.02 165.39 1586.18 161.48 1582.98 159.78C1579.78 158.08 1574.64 158.78 1572.41 161C1574.9 157.47 1576.35 153.312 1576.59 149C1571.32 150.83 1567.37 154.22 1565.97 158.1C1562.64 152.833 1559.27 147.567 1555.87 142.3C1554.33 147.57 1555.8 153.25 1559.87 157.97C1561.01 159.29 1562.39 160.81 1561.56 162.2C1559.99 164.82 1554.93 163.49 1552.56 162.2C1545.23 158.2 1534.66 158.66 1525.56 157.75C1476.92 152.9 1428.04 149.59 1379.15 146.64C1343.08 144.46 1307.4 144.92 1271.93 144.64C1264.6 144.58 1257.26 144.563 1249.93 144.59C1244.17 144.59 1237.24 144.19 1231.66 144.74C1245.44 143.39 1256.11 138.67 1261.08 132.74C1262.93 130.53 1264.31 128.16 1259.77 126.31C1256.36 124.92 1251.39 124.16 1247.37 123.31C1237.87 121.39 1228.02 119.9 1218.04 118.72C1156.75 111.46 1089.82 111.91 1027.47 113.13C1016.67 113.34 1005.78 112.86 994.9 112.85C996.21 110.85 993.56 108.49 990.38 108.22C988.908 108.107 987.429 108.305 986.039 108.801C984.648 109.297 983.378 110.081 982.31 111.1C980.781 112.812 979.693 114.872 979.14 117.1C977.28 113.407 975.407 109.713 973.52 106.02C971.24 110.293 968.933 114.557 966.6 118.81C961.208 115.841 956.451 111.842 952.6 107.04C950.22 110.04 952.84 114.3 957.7 115.33C950.576 116.983 943.245 117.56 935.95 117.04C931.77 116.7 927.59 117.19 923.36 117.46C913.633 118.087 903.913 118.777 894.2 119.53C874.807 121.023 855.473 122.75 836.2 124.71C831.36 125.2 825.39 126.28 825.12 128.53C827.81 128.99 827.69 128.21 830.38 128.67C816.06 128.85 801.727 129.073 787.38 129.34C743.98 130.16 700.56 131.48 657.2 133.62C635.6 134.68 613.97 135.78 592.43 137.47C577.94 138.6 564.31 142.2 550.01 143.87C550.01 142.87 550.01 130.58 549.38 130.79C542.15 133.21 536.74 137.99 535.23 143.27L531 127.27C529.404 129.241 528.223 131.513 527.527 133.952C526.831 136.39 526.635 138.944 526.95 141.46V141.46Z" fill="url(#paint3_linear_605_90)"/>
<path d="M526.95 141.46C519.606 136.273 512.816 130.341 506.69 123.76C506.69 124 506.78 124.23 506.82 124.47C507.602 128.422 508.678 132.309 510.04 136.1C510.63 137.72 511.04 139.53 512.35 140.89C513.729 142.515 514.976 144.247 516.08 146.07C457.515 147.706 399.273 155.373 342.28 168.95C337.54 170.09 331.94 172.08 331.65 175.81C331.36 179.54 336.93 182.07 341.73 183.38C350.715 185.833 359.838 187.749 369.05 189.12C376.05 190.12 383.13 190.79 390.24 191.35C397.1 191.9 404.09 191.22 410.88 192.03C419.5 193.03 426.45 193.71 435.2 192.33C426.78 187.59 420.67 181.01 417.99 173.76C425.843 178.227 433.987 182.443 442.42 186.41C442.004 184.674 442.017 182.862 442.458 181.132C442.899 179.402 443.754 177.806 444.95 176.48C445.81 180.82 446.673 185.153 447.54 189.48C449.06 184.2 454.91 179.48 462.4 177.57C463.27 182.451 462.489 187.483 460.18 191.87C464.909 190.987 469.709 190.538 474.52 190.53C478.85 190.53 483 191.53 487.2 191.34C497.67 190.97 508.2 189.91 518.63 188.94C539.27 187 559.8 184.51 580.36 182.16C557.879 184.635 535.706 189.379 514.18 196.32C509.59 197.82 504.84 199.6 503.05 202.04C499.05 207.55 511.82 211.55 522.86 213.33C527.66 214.11 531.54 215.72 536.33 216.47C541.54 217.271 546.811 217.605 552.08 217.47C547.23 214.27 544.93 209.36 546.17 204.77C551.81 207.55 557.433 210.34 563.04 213.14C563.87 210.03 566.95 207.21 571.11 205.77C572.27 210.063 573.423 214.36 574.57 218.66C574.17 217.15 584.16 218.71 585 219.08C588.012 220.473 591.282 221.219 594.6 221.27C604.073 221.897 613.563 222.397 623.07 222.77C642.07 223.52 661.07 223.77 680.07 223.68C707.37 223.54 734.74 222.68 762.07 221.38C770.07 221 778.07 221.25 786.07 221.01C779.86 212.224 775.495 202.27 773.24 191.75C779.3 199.41 785.327 207.077 791.32 214.75C790.32 208.93 793.25 202.82 799.13 198.47C796.711 204.46 796.387 211.092 798.21 217.29C803.527 212.59 809.648 208.887 816.28 206.36C817.245 205.901 818.315 205.707 819.38 205.8C821.64 206.19 821.54 208.39 820.79 209.9C818.84 213.718 816.222 217.155 813.06 220.05L828.87 218.42C833.55 217.94 838.87 216.87 843.57 217.3C852.89 218.13 862.32 217.65 871.77 217.52C915.45 216.94 959.07 216.99 1003.05 215.9C1029.05 215.26 1055.15 214.73 1081.16 213.9C1083.58 213.82 1085.79 213.82 1088.16 213.9C1090.05 213.97 1091.8 214.09 1093.77 214.1L1104.63 214.2C1104.82 214.2 1106.44 214.2 1108.09 214.2C1109.13 214.066 1110.19 214.086 1111.23 214.26C1111.36 214.262 1111.49 214.282 1111.61 214.32C1111.49 214.32 1111.36 214.32 1111.23 214.26C1110.59 214.2 1109.34 214.19 1108.09 214.2C1103.78 214.74 1100.74 217.71 1102.77 219.9C1105.32 222.66 1111.89 224.03 1117.91 225.07C1191.3 237.77 1267.31 240.16 1342.45 241.24C1368.45 241.6 1394.25 242.47 1419.61 238.31C1410.61 234.14 1404 227.58 1401.52 220.37C1407.48 225.21 1413.42 230.067 1419.34 234.94C1417.94 230.28 1420.84 225.19 1426.47 222.49C1427.8 226.041 1427.99 229.914 1427.03 233.58C1430.03 228.47 1437.11 224.64 1445.11 223.85C1446.07 223.671 1447.06 223.786 1447.95 224.18C1449.05 224.86 1448.61 226.07 1448.08 227L1440.08 240.94C1440.08 240.87 1466 242.34 1468.28 242.72C1474.45 243.72 1480.98 243.48 1487.28 243.61C1501.06 243.903 1514.85 244.147 1528.66 244.34C1556.84 244.74 1585.1 244.97 1613.28 244.16C1632.2 243.62 1654.37 243.66 1671.89 238.35C1677.21 236.73 1682.79 233.78 1679.8 229.35C1676.81 224.92 1666.21 222.47 1656.89 220.82C1619.87 214.303 1582.54 209.677 1545.05 206.96C1538.44 206.573 1531.84 206.147 1525.23 205.68C1531.84 206.04 1538.45 206.467 1545.05 206.96C1558.54 207.753 1572.05 208.383 1585.56 208.85C1601.05 209.37 1616.94 210.15 1632.38 209.56C1637.21 209.37 1644.46 211.27 1647.38 207.56C1650.11 204.11 1644.55 199.24 1647.71 195.96C1650.03 199.613 1652.34 203.28 1654.63 206.96C1655.34 203.96 1658.38 201.41 1662.45 200.29C1663.07 202.96 1663.7 205.63 1664.32 208.29C1664.68 209.82 1684.76 207.29 1686.97 207.29C1693.56 207.394 1700.05 205.763 1705.81 202.56C1708.36 201.06 1710.24 199.19 1709.97 197.14C1709.56 193.97 1704.24 191.14 1698.88 188.87C1677.2 179.69 1650.05 174.26 1623.13 170.05C1619.25 169.296 1615.34 168.749 1611.4 168.41C1609.09 168.29 1606.86 168.41 1604.56 168.15C1600.8 167.67 1597.23 166.86 1593.41 166.58C1590.6 166.37 1585.04 165.72 1582.47 166.58C1586.02 165.39 1586.18 161.48 1582.98 159.78C1579.78 158.08 1574.64 158.78 1572.41 161C1574.9 157.47 1576.35 153.312 1576.59 149C1571.32 150.83 1567.37 154.22 1565.97 158.1C1562.64 152.833 1559.27 147.567 1555.87 142.3C1554.33 147.57 1555.8 153.25 1559.87 157.97C1561.01 159.29 1562.39 160.81 1561.56 162.2C1559.99 164.82 1554.93 163.49 1552.56 162.2C1545.23 158.2 1534.66 158.66 1525.56 157.75C1476.92 152.9 1428.04 149.59 1379.15 146.64C1343.08 144.46 1307.4 144.92 1271.93 144.64C1264.6 144.58 1257.26 144.563 1249.93 144.59C1244.17 144.59 1237.24 144.19 1231.66 144.74C1245.44 143.39 1256.11 138.67 1261.08 132.74C1262.93 130.53 1264.31 128.16 1259.77 126.31C1256.36 124.92 1251.39 124.16 1247.37 123.31C1237.87 121.39 1228.02 119.9 1218.04 118.72C1156.75 111.46 1089.82 111.91 1027.47 113.13C1016.67 113.34 1005.78 112.86 994.9 112.85C996.21 110.85 993.56 108.49 990.38 108.22C988.908 108.107 987.429 108.305 986.039 108.801C984.648 109.297 983.378 110.081 982.31 111.1C980.781 112.812 979.693 114.872 979.14 117.1C977.28 113.407 975.407 109.713 973.52 106.02C971.24 110.293 968.933 114.557 966.6 118.81C961.208 115.841 956.451 111.842 952.6 107.04C950.22 110.04 952.84 114.3 957.7 115.33C950.576 116.983 943.245 117.56 935.95 117.04C931.77 116.7 927.59 117.19 923.36 117.46C913.633 118.087 903.913 118.777 894.2 119.53C874.807 121.023 855.473 122.75 836.2 124.71C831.36 125.2 825.39 126.28 825.12 128.53C827.81 128.99 827.69 128.21 830.38 128.67C816.06 128.85 801.727 129.073 787.38 129.34C743.98 130.16 700.56 131.48 657.2 133.62C635.6 134.68 613.97 135.78 592.43 137.47C577.94 138.6 564.31 142.2 550.01 143.87C550.01 142.87 550.01 130.58 549.38 130.79C542.15 133.21 536.74 137.99 535.23 143.27L531 127.27C529.404 129.241 528.223 131.513 527.527 133.952C526.831 136.39 526.635 138.944 526.95 141.46Z" fill="url(#paint4_linear_605_90)"/>
<path d="M1111.19 214.19C1110.15 214.016 1109.09 213.996 1108.05 214.13C1109.3 214.12 1110.55 214.13 1111.19 214.19Z" fill="url(#paint5_linear_605_90)"/>
<path d="M1545.07 206.85C1538.47 206.357 1531.86 205.93 1525.25 205.57C1531.85 206.043 1538.46 206.47 1545.07 206.85Z" fill="url(#paint6_linear_605_90)"/>
<path d="M1545.07 206.85C1538.47 206.357 1531.86 205.93 1525.25 205.57C1531.85 206.043 1538.46 206.47 1545.07 206.85Z" fill="url(#paint7_linear_605_90)"/>
<path d="M1913.26 200.21C1905.98 202.47 1898.6 204.52 1891.11 206.36C1887.43 207.26 1883.61 207.89 1879.85 208.62L1873.92 209.78C1873.21 209.91 1868.4 210.48 1868.22 210.89C1869.71 207.557 1871.2 204.223 1872.68 200.89C1865.99 202.1 1860.34 205.98 1858.19 210.83C1854.47 203.693 1849.67 197.176 1843.95 191.51C1843.62 198.352 1845.87 205.069 1850.24 210.34C1851.01 211.29 1851.82 212.54 1850.92 213.41C1850.24 214.06 1848.92 214.1 1847.86 214.09C1844.35 214.09 1840.37 213.57 1837.02 214.44C1834.06 215.056 1831.04 215.341 1828.02 215.29C1817.97 215.645 1807.9 215.495 1797.86 214.84C1810.98 220.16 1822.26 227.96 1830.36 237.28C1832.77 240.05 1834.97 243.28 1834.29 246.48C1833.44 250.48 1828.52 253.23 1823.89 255.36C1821.42 256.5 1818.89 257.61 1816.37 258.67C1797.73 266.378 1778.25 271.853 1758.32 274.98C1748.13 276.612 1737.85 277.667 1727.54 278.14C1722.37 278.37 1717.19 278.43 1712.01 278.41C1705.01 278.41 1698.01 279.17 1691.01 279.53C1688.15 279.778 1685.27 279.811 1682.4 279.63C1679.49 279.34 1676.04 280.04 1673.13 280.29L1663.29 281.13L1658.29 281.57C1657.5 281.64 1654.29 281.57 1653.74 281.97C1657.05 279.37 1659.7 276.021 1661.47 272.2C1661.94 271.15 1662.29 269.9 1661.47 268.98C1660.09 267.48 1656.99 268.1 1654.84 268.98C1649.22 271.143 1643.77 273.727 1638.54 276.71C1639.54 275.13 1640.54 273.1 1639.07 271.71C1637.6 270.32 1634.25 270.83 1632.75 272.27C1631.25 273.71 1631.05 275.66 1630.9 277.49C1622.98 273.617 1615.05 269.753 1607.1 265.9C1611.45 272.14 1619.6 276.82 1628.73 278.32L1622.73 278.39L1610.73 278.53C1608.1 278.53 1605.83 279.25 1603.28 279.43C1602.44 279.485 1601.61 279.485 1600.77 279.43C1596.21 279.17 1591.65 278.74 1587.1 278.43C1577.17 277.63 1567.25 276.76 1557.33 275.89C1537.9 274.16 1518.47 272.37 1499.01 270.81C1489.01 270.01 1479.03 269.177 1469.07 268.31C1463.89 267.857 1458.71 267.393 1453.52 266.92L1446.34 266.27C1444.33 266.185 1442.33 265.998 1440.34 265.71C1463.61 270.45 1485.19 279.78 1502.34 292.49C1504.98 294.49 1507.66 296.7 1508.12 299.49C1508.58 302.28 1506.55 305.17 1503.68 307.05C1500.81 308.93 1497.21 310.05 1493.68 311.05L1492.85 311.29C1478.87 315.152 1464.69 318.263 1450.38 320.61C1435.96 323.03 1421.38 324.83 1406.73 326.26C1399.09 327.01 1391.41 327.52 1383.73 328.26C1378.73 328.74 1374.89 331.17 1369.99 331.78C1362.36 332.648 1354.65 332.433 1347.09 331.14C1345.09 330.81 1342.82 330.26 1341.91 328.84C1341.12 327.59 1341.66 326.11 1342.21 324.84C1345.13 317.827 1348.06 310.827 1351.01 303.84C1338.85 306.91 1330.82 315.44 1323.67 323.47C1325.97 315.12 1326.81 306.436 1326.16 297.8C1319.93 303.55 1316.5 311 1316.6 318.45C1308.12 307.397 1300.73 295.553 1294.52 283.08C1293.73 300.14 1299.52 317.34 1310.76 332.08C1306.75 333.904 1302.49 335.143 1298.13 335.76C1294.74 336.253 1291.3 336.398 1287.88 336.19C1286.44 336.009 1284.98 335.972 1283.53 336.08C1282.36 336.24 1281.27 336.5 1280.06 336.57C1270.56 337.1 1260.91 337 1251.39 337C1241.53 337 1231.67 336.867 1221.82 336.6C1202.5 336.08 1183.22 335.11 1163.96 333.84L1160.42 333.6C1136.5 331.98 1112.64 329.94 1088.78 327.82L1064.95 325.48C1057.41 324.81 1049.55 323.56 1041.95 323.59C1036.95 323.59 1032.55 324.79 1027.49 324.33C1019.65 323.63 1011.82 322.75 1003.99 321.97C1006.99 321.07 1008.13 317.84 1006.52 315.68C1004.91 313.52 1001.31 312.5 998.06 312.81C994.966 313.176 992.031 314.379 989.57 316.29C990.22 314.07 990.85 311.69 989.75 309.57C988.65 307.45 985.04 305.95 982.55 307.22C979.49 308.79 980.28 313.11 976.86 314.16C974.2 314.96 971.51 312.97 970.32 310.99C969.13 309.01 968.32 306.66 965.81 305.6C966.618 309.275 968.505 312.625 971.23 315.22C964.14 315.14 956.63 314.53 949.58 315.11C947.58 315.28 945.74 315.83 943.78 316.11C942.536 316.298 941.279 316.392 940.02 316.39C933.34 316.44 926.58 315.91 919.9 315.74C911.4 315.52 902.897 315.39 894.39 315.35C847.03 315.08 799.73 317.18 752.48 319.3C749.715 319.299 746.951 319.439 744.2 319.72C742.42 319.99 740.92 320.53 739.07 320.65C733.45 321.03 727.78 321.17 722.15 321.43C723.37 319.18 724.62 316.75 723.86 314.38C723.1 312.01 719.34 310.12 716.63 311.38C714.19 312.55 713.84 315.56 711.12 316.27C710.177 316.478 709.193 316.394 708.299 316.027C707.406 315.661 706.645 315.03 706.12 314.22C705.437 312.767 705.241 311.133 705.56 309.56C701.129 311.616 697.431 314.976 694.96 319.19C689.441 314.325 685.008 308.352 681.95 301.66C680.669 303.884 680.109 306.451 680.347 309.006C680.585 311.562 681.61 313.981 683.28 315.93L662.84 319.52C659.53 320.1 656.08 320.52 652.84 321.33C648.32 322.43 645.36 321.38 640.42 320.98C632.547 320.313 624.657 319.837 616.75 319.55C608.843 319.263 600.93 319.113 593.01 319.1C590.89 319.1 569.96 318.76 569.74 319.58C571.74 312.127 573.783 304.67 575.87 297.21C567.69 299.79 561.25 305.32 558.87 311.77C559.613 308.781 559.71 305.667 559.155 302.638C558.599 299.608 557.405 296.732 555.65 294.2C550.65 299.81 548.36 306.71 549.16 313.42C538.404 306.312 526.96 300.305 515 295.49C520 299.617 525.223 303.573 530.67 307.36C535.95 311.04 541.94 314.22 547.1 317.95C539.23 319.37 531.69 319.35 524.31 322.15C521.791 323.163 519.147 323.836 516.45 324.15C511.28 324.66 505.94 324.35 500.76 324.42C488.98 324.59 477.21 324.89 465.43 325.19C447.66 325.64 429.87 326.1 412.08 326.1C404.127 326.1 396.183 325.993 388.25 325.78C381.25 325.58 373.91 325.7 367.1 324.45C362.26 323.435 357.349 322.8 352.41 322.55C346.41 322.35 339.95 320.94 336.32 317.03C330.68 310.98 334.51 301.69 328.32 295.95C327.467 301.283 326.623 306.617 325.79 311.95C317.585 306.526 310.133 300.039 303.63 292.66C306.951 301.204 312.376 308.771 319.4 314.66C307.59 313.812 295.877 311.921 284.4 309.01C279.4 307.73 274.46 305.74 269.19 305.14C258.38 303.9 248.97 298.33 240.29 293.65C243.623 290.983 246.957 288.343 250.29 285.73C252.84 283.73 255.42 280.95 258.73 279.61C262.5 278.08 267.29 277.09 271.18 275.78C289.729 269.563 308.892 265.356 328.34 263.23C290.62 267.33 248.34 265.03 209.47 265.07C206.06 265.07 202.6 265.21 199.2 264.93C196.696 264.87 194.191 265.011 191.71 265.35C185.999 265.808 180.274 264.651 175.19 262.01C173.08 260.85 171.19 259.4 168.63 258.87C166.07 258.34 162.76 259.26 162.44 261.21C159.973 256.543 157.5 251.907 155.02 247.3C153.736 248.55 152.738 250.063 152.095 251.736C151.453 253.409 151.182 255.202 151.3 256.99C145.46 252.163 139.607 247.337 133.74 242.51C133.495 244.83 133.758 247.175 134.509 249.383C135.26 251.592 136.482 253.611 138.09 255.3C118.525 255.125 99.0424 252.746 80.01 248.21C74.6 246.91 68.48 244.79 67.39 240.62C66.3 236.45 70.98 232.62 75.48 229.95C82.1627 225.941 89.1432 222.451 96.36 219.51C100.02 218 103.78 216.57 107.63 215.36C115.33 212.93 122.96 210.23 130.63 207.63L146.05 202.39L154.92 199.39C156.333 198.777 157.795 198.282 159.29 197.91C153.29 198.5 146.9 199.32 140.88 199.09C139.06 199.03 137.33 198.57 135.5 198.66C132.764 198.944 130.053 199.432 127.39 200.12L120.95 184.49C118.035 187.543 116.359 191.57 116.25 195.79C108.07 190.71 99.87 185.647 91.65 180.6C95.38 187.95 102.54 194.31 111.65 198.36C105.585 198.869 99.4836 198.762 93.44 198.04C86.55 197.21 80.61 195.04 73.96 193.74C58.75 190.66 41.25 183.55 41.85 171.85C42.38 161.43 57.1 154.85 70.1 150.6C114.528 136.113 160.043 125.198 206.21 117.96C211.49 117.12 217.06 115.87 222.48 115.84C226.01 115.84 229.25 116.34 232.8 115.89C244.8 114.36 256.8 111.6 268.7 109.48C293.013 105.173 317.347 100.94 341.7 96.78C354.867 94.5333 368.043 92.3133 381.23 90.12C430.057 82 479.037 74.21 528.17 66.75C545.71 64.0833 563.263 61.4667 580.83 58.9L583.5 58.5C388.377 48.8969 192.785 59.8371 -0.0500031 91.14L-0.0500031 421.14C1.28333 427.7 2.64666 434.263 4.04 440.83C642.05 404.28 1281.61 400.66 1919.95 437.99V198.06L1918.95 198.38C1917.1 199 1915.18 199.66 1913.26 200.21Z" fill="url(#paint8_linear_605_90)"/>
<path d="M1339.61 58.11C1320.14 57.6433 1300.65 57.2533 1281.16 56.94C1319.62 62.1933 1358 67.65 1396.31 73.31C1420.86 76.9367 1445.38 80.65 1469.86 84.45C1478.61 85.81 1486.48 86.78 1495.33 85.73C1514.68 83.43 1534.57 86.91 1553.8 88.73C1603.24 93.3033 1652.5 98.7367 1701.59 105.03C1726.12 108.17 1750.59 111.527 1775.02 115.1C1786.71 116.8 1800.02 117.6 1811.21 120.62C1812.79 121.144 1814.33 121.786 1815.82 122.54C1822.92 125.54 1831.42 127.19 1839 129.45C1865.78 137.41 1892.07 146.157 1917.88 155.69L1919.95 156.47V97.52C1727.45 75.5 1534.06 62.79 1339.61 58.11Z" fill="url(#paint9_linear_605_90)"/>
<defs>
<linearGradient id="paint0_linear_605_90" x1="715.412" y1="7.98746" x2="714.12" y2="154.125" gradientUnits="userSpaceOnUse">
<stop offset="0.12" stop-color="#9CC700"/>
<stop offset="1" stop-color="#1F7209"/>
</linearGradient>
<linearGradient id="paint1_linear_605_90" x1="1111.38" y1="94.9049" x2="1111.38" y2="432.521" gradientUnits="userSpaceOnUse">
<stop stop-color="#A3A32F"/>
<stop offset="1" stop-color="#496B22"/>
</linearGradient>
<linearGradient id="paint2_linear_605_90" x1="980.89" y1="36.56" x2="980.89" y2="374.19" gradientUnits="userSpaceOnUse">
<stop offset="0.01" stop-color="#C5D225"/>
<stop offset="0.84" stop-color="#6EAB1E"/>
</linearGradient>
<linearGradient id="paint3_linear_605_90" x1="1.40745e+06" y1="37722.7" x2="1.40745e+06" y2="84546.5" gradientUnits="userSpaceOnUse">
<stop stop-color="#A3A32F"/>
<stop offset="1" stop-color="#496B22"/>
</linearGradient>
<linearGradient id="paint4_linear_605_90" x1="1020.82" y1="91.83" x2="1020.82" y2="245.2" gradientUnits="userSpaceOnUse">
<stop offset="0.2" stop-color="#D5E32B"/>
<stop offset="0.82" stop-color="#B0D226"/>
</linearGradient>
<linearGradient id="paint5_linear_605_90" x1="4592.43" y1="254.069" x2="4592.43" y2="303.892" gradientUnits="userSpaceOnUse">
<stop stop-color="#A3A32F"/>
<stop offset="1" stop-color="#496B22"/>
</linearGradient>
<linearGradient id="paint6_linear_605_90" x1="31953" y1="552.757" x2="31953" y2="984.923" gradientUnits="userSpaceOnUse">
<stop stop-color="#A3A32F"/>
<stop offset="1" stop-color="#496B22"/>
</linearGradient>
<linearGradient id="paint7_linear_605_90" x1="31995.6" y1="506.895" x2="31995.1" y2="1103.9" gradientUnits="userSpaceOnUse">
<stop stop-color="#C2C238"/>
<stop offset="1" stop-color="#496B22"/>
</linearGradient>
<linearGradient id="paint8_linear_605_90" x1="962.06" y1="16.38" x2="958.73" y2="408.14" gradientUnits="userSpaceOnUse">
<stop offset="0.15" stop-color="#A6C521"/>
<stop offset="1" stop-color="#3A8317"/>
</linearGradient>
<linearGradient id="paint9_linear_605_90" x1="1.02419e+06" y1="19779.8" x2="1.02414e+06" y2="58774.4" gradientUnits="userSpaceOnUse">
<stop offset="0.15" stop-color="#A6C521"/>
<stop offset="1" stop-color="#3A8317"/>
</linearGradient>
</defs>
</svg>
