<svg width="1920" height="453" viewBox="0 0 1920 453" fill="none" xmlns="http://www.w3.org/2000/svg">
<path d="M592.56 203.45C594.46 203.45 597.83 201.01 599.38 200.12C601.705 198.793 603.931 197.299 606.04 195.65C609.04 193.26 610.61 190.7 612.35 187.56C614.53 183.64 618.29 180.8 621.75 177.76L634.49 166.56C638.49 163.01 642.55 159.42 646.62 155.89C647.752 154.714 649.281 154.001 650.91 153.89C661.34 152.51 671.99 152.75 682.51 153.03C684.02 148.37 680.24 142.94 674.81 141.97C669.38 141 663.48 144.72 662.81 149.53C665.19 143.62 658.57 137.14 651.43 136.66C644.29 136.18 637.62 140.03 632.85 144.66C634.71 140.66 636.62 136.58 636.44 132.3C636.26 128.02 633.44 123.5 628.66 122.43C623.88 121.36 618.23 125.43 619.74 129.52C620.94 125.779 621.263 121.812 620.684 117.925C620.105 114.039 618.639 110.339 616.4 107.11C614.92 104.91 612.63 100.93 610.2 99.43C609.406 99.0339 608.54 98.8039 607.655 98.7541C606.769 98.7042 605.883 98.8355 605.05 99.14C598.35 101.03 595.05 110.14 600.58 114.51C598.37 109.62 592.63 99.51 585.51 99.21C576.51 98.84 573.38 110.06 574.36 115.9C575.23 121.05 575.73 126.19 577.28 131.26C577.47 127.89 573.84 124.75 569.99 124.96C566.14 125.17 562.99 128.69 563.67 131.96C565.53 126.84 561.42 120.7 555.39 119.62C549.36 118.54 542.83 122.77 542.24 128.13C545.94 120.76 536.52 112.07 527.39 113.03C518.26 113.99 511.62 121.81 510.3 129.77C511.617 127.827 512.203 125.48 511.954 123.146C511.705 120.812 510.637 118.642 508.94 117.02C507.009 115.321 504.643 114.192 502.107 113.76C499.572 113.327 496.965 113.608 494.58 114.57C499.46 114.18 503.09 109.2 501.43 105.16C499.77 101.12 492.5 95.57 488.43 97.98C494.83 95.92 497.18 87.69 492.65 83.24C488.12 78.79 478.49 79.9 475.43 85.24C474.89 80.33 473.12 75.08 468.5 72.24C463.88 69.4 455.94 70.8 454.69 75.62C452.97 71.81 446.24 71.76 442.86 74.62C439.48 77.48 434.62 80 433.86 84.04C431.29 82.14 430.45 79.04 429.2 76.31C427.95 73.58 425.61 70.7 422.2 70.61C420.915 70.6346 419.662 71.0161 418.581 71.7119C417.5 72.4077 416.634 73.3903 416.08 74.55C415.01 76.72 415.18 77.55 415.15 79.93C415.77 72.4 409.48 64.88 401.08 63.12C392.68 61.36 383.17 65.54 379.81 72.5C380.768 71.8843 381.573 71.0591 382.165 70.0868C382.757 69.1145 383.121 68.0204 383.229 66.8871C383.337 65.7537 383.186 64.6106 382.788 63.5441C382.39 62.4775 381.754 61.5153 380.93 60.73C377.38 57.52 370.59 57.82 367.44 61.32C373.19 60.48 375.21 53.07 371.44 49.2C367.67 45.33 360.44 45.14 355.36 47.59C350.28 50.04 346.82 54.52 344.21 59.08C349.95 49.55 355.84 39.44 355.35 28.68C354.86 17.92 345.35 6.68001 333.02 7.16001C325.94 7.44001 319.62 11.5 315.51 16.55C313.109 19.6271 311.141 23.0187 309.66 26.63C308.89 28.4 308.3 30.25 307.51 32.01C307.14 32.84 306.72 33.61 306.39 34.45C305.34 37.16 303.98 43.56 305.14 46.31C300.47 35.31 290.9 25.94 278.91 20.66C274.59 18.76 269.47 17.38 265 18.98C259.89 20.81 257.43 25.85 256.05 30.53C251.613 45.882 253.409 62.3646 261.05 76.4C256.45 70.4 251.53 64.21 244.14 61.06C239.725 59.2069 234.816 58.89 230.2 60.16C228.12 60.7128 226.197 61.7396 224.58 63.16C223.81 63.86 223.14 64.66 222.39 65.38C220.61 67.08 219.64 68.95 218.19 70.89C223.94 63.16 217.09 50.99 206.58 50.25C207.82 41.49 194.51 34.25 186.07 39.08C187.62 34.13 178.43 31.16 173.94 34.47C169.45 37.78 168.94 43.56 168.83 48.69C164.91 34.1137 158 20.5122 148.54 8.75001C145.62 5.08001 141.87 1.27001 136.79 0.810008C129.9 0.200008 124.59 5.92 121.29 11.24C113.512 23.705 108.853 37.8617 107.71 52.51C104.6 48.9 98.48 47.57 93.79 49.51C89.1 51.45 81.46 54.92 82.6 59.33C82.76 56.26 80.1 53.28 76.67 52.66C73.24 52.04 65.49 51.34 64.25 54.21C62.4 50.34 60.38 46.44 57.09 43.39C53.8 40.34 49.01 38.24 44.28 38.91C39.55 39.58 35.43 43.64 36.28 47.76C34.2 42.71 27.78 38.22 21.78 37.12C18.52 30.28 9.3 26.51 0.869999 27.36C-7.56 28.21 -14.95 33 -19.94 39C-24.93 45 -27.77 52.14 -30.01 59.29C-36.75 80.83 -52.01 98.62 -56.69 120.57C-59.69 134.77 -60.95 150.24 -52.96 162.87C-42.96 178.7 -21.41 185.67 -1.35 190.07C57.66 203 119.11 204.56 179.96 206.08C294.53 208.94 409.12 211.81 523.74 212.17C547.11 212.24 571.35 212.06 592.56 203.45Z" fill="url(#paint0_linear_7712_44)"/>
<path d="M1432.73 184.37C1431.23 184.37 1428.56 182.44 1427.33 181.73C1425.49 180.68 1423.74 179.501 1422.07 178.2C1419.96 176.453 1418.25 174.27 1417.07 171.8C1415.35 168.71 1412.38 166.46 1409.64 164.05L1399.57 155.2C1396.37 152.39 1393.19 149.56 1389.97 146.76C1389.08 145.822 1387.88 145.248 1386.59 145.15C1378.33 144.06 1369.91 144.25 1361.59 144.47C1360.39 140.78 1363.38 136.47 1367.68 135.72C1371.98 134.97 1376.68 137.9 1377.18 141.72C1375.3 137.05 1380.53 131.93 1386.18 131.54C1391.83 131.15 1397.1 134.21 1400.87 137.9C1399.39 134.77 1397.87 131.51 1398.03 128.13C1398.07 126.339 1398.7 124.61 1399.81 123.202C1400.91 121.795 1402.45 120.783 1404.18 120.32C1407.93 119.47 1412.42 122.71 1411.18 125.93C1410.23 122.971 1409.98 119.834 1410.44 116.761C1410.9 113.688 1412.06 110.762 1413.83 108.21C1414.99 106.47 1416.83 103.32 1418.73 102.14C1419.36 101.828 1420.04 101.646 1420.74 101.607C1421.44 101.567 1422.14 101.67 1422.8 101.91C1428.1 103.4 1430.72 110.61 1426.33 114.06C1428.08 110.19 1432.62 102.19 1438.25 101.96C1445.37 101.68 1447.84 110.54 1447.06 115.17C1446.38 119.23 1445.98 123.3 1444.76 127.3C1444.61 124.64 1447.48 122.16 1450.52 122.3C1453.56 122.44 1456.05 125.24 1455.52 127.86C1454.05 123.81 1457.3 118.96 1462.06 118.1C1466.82 117.24 1472 120.6 1472.46 124.83C1469.54 119.01 1476.98 112.13 1484.2 112.89C1491.42 113.65 1496.67 119.83 1497.72 126.13C1496.68 124.594 1496.21 122.739 1496.41 120.894C1496.61 119.049 1497.45 117.333 1498.79 116.05C1500.32 114.708 1502.19 113.816 1504.2 113.473C1506.2 113.131 1508.26 113.351 1510.15 114.11C1506.29 113.8 1503.42 109.87 1504.73 106.67C1506.04 103.47 1511.79 99.0899 1515 100.99C1509.94 99.3699 1508.07 92.8599 1511.66 89.3399C1515.25 85.8199 1522.85 86.6999 1525.28 90.9099C1525.7 87.0299 1527.1 82.9099 1530.75 80.6399C1534.4 78.3699 1540.69 79.5099 1541.67 83.3099C1543.03 80.3099 1548.35 80.2599 1551.03 82.4999C1553.71 84.7399 1557.54 86.7499 1558.11 89.9499C1560.11 88.4399 1560.81 85.9999 1561.79 83.8399C1562.77 81.6799 1564.63 79.3999 1567.3 79.3299C1568.32 79.3508 1569.31 79.6535 1570.16 80.2044C1571.02 80.7553 1571.7 81.5327 1572.14 82.4499C1572.99 84.1599 1572.85 84.8399 1572.87 86.6999C1572.39 80.6999 1577.36 74.7999 1584 73.3999C1590.64 71.9999 1598.16 75.3199 1600.82 80.8199C1600.07 80.3268 1599.44 79.6717 1598.98 78.903C1598.51 78.1342 1598.23 77.2715 1598.14 76.3781C1598.06 75.4848 1598.18 74.5837 1598.48 73.7412C1598.79 72.8987 1599.29 72.1362 1599.93 71.5099C1602.74 68.9799 1608.1 69.2199 1610.6 71.9899C1606.05 71.3199 1604.46 65.4599 1607.47 62.3999C1610.48 59.3399 1616.13 59.1899 1620.18 61.1299C1624.23 63.0699 1626.93 66.5999 1629 70.2099C1624.46 62.6699 1619.8 54.6799 1620.19 46.2099C1620.58 37.7399 1628.12 28.8099 1637.85 29.2099C1643.44 29.4299 1648.44 32.6399 1651.69 36.6299C1653.6 39.0717 1655.16 41.7635 1656.33 44.6299C1656.94 46.0299 1657.4 47.4899 1658.03 48.8799C1658.33 49.5399 1658.66 50.1499 1658.91 50.8099C1659.75 52.9499 1660.83 58.0199 1659.91 60.1899C1663.61 51.4799 1671.17 44.0799 1680.66 39.9099C1684.07 38.4099 1688.12 37.3099 1691.66 38.5799C1695.66 40.0199 1697.66 44.0099 1698.74 47.7099C1702.25 59.8472 1700.84 72.8797 1694.8 83.9799C1698.43 79.2699 1702.32 74.3399 1708.16 71.8499C1711.64 70.3882 1715.52 70.1382 1719.16 71.1399C1720.8 71.5808 1722.33 72.3914 1723.61 73.5099C1724.22 74.0699 1724.75 74.6999 1725.34 75.2599C1726.57 76.6124 1727.68 78.0714 1728.66 79.6199C1724.12 73.5099 1729.53 63.8899 1737.84 63.2999C1736.84 56.3699 1747.39 50.6399 1754.06 54.4699C1752.84 50.5599 1760.06 48.2099 1763.65 50.8199C1767.24 53.4299 1767.58 58.0099 1767.65 62.0699C1770.75 50.54 1776.22 39.7817 1783.7 30.4799C1786.01 27.5899 1788.97 24.5799 1792.99 24.2099C1798.44 23.7199 1802.63 28.2099 1805.24 32.4599C1811.42 42.2777 1815.14 53.4392 1816.09 64.9999C1817.48 63.5634 1819.27 62.5696 1821.23 62.1428C1823.18 61.716 1825.22 61.875 1827.09 62.5999C1830.8 64.1099 1836.84 66.8799 1835.94 70.3599C1835.82 67.9399 1837.94 65.5799 1840.63 65.0899C1843.32 64.5999 1849.47 64.0899 1850.45 66.3199C1851.92 63.2599 1853.52 60.1799 1856.11 57.7699C1857.44 56.479 1859.04 55.4928 1860.78 54.8798C1862.53 54.2668 1864.39 54.0416 1866.24 54.2199C1869.98 54.7499 1873.24 57.9599 1872.56 61.2199C1874.2 57.2199 1879.28 53.6799 1884.02 52.8099C1886.61 47.3999 1893.9 44.4099 1900.56 45.0899C1907.03 45.9089 1912.93 49.2026 1917.03 54.2799C1920.97 59.0199 1923.22 64.6699 1925.03 70.2799C1930.36 87.2799 1942.45 101.38 1946.13 118.74C1948.5 129.96 1949.5 142.19 1943.13 152.18C1935.21 164.7 1918.13 170.18 1902.32 173.69C1855.63 183.93 1807.07 185.18 1758.96 186.38C1668.37 188.65 1577.77 190.92 1487.14 191.2C1468.66 191.32 1449.5 191.17 1432.73 184.37Z" fill="url(#paint1_linear_7712_44)"/>
<path d="M380.3 102C367.107 104.2 353.93 106.42 340.77 108.66C316.397 112.807 292.063 117.043 267.77 121.37C255.89 123.48 243.9 126.25 231.87 127.77C228.32 128.22 225.08 127.7 221.54 127.77C216.13 127.77 210.54 129.05 205.28 129.89C159.107 137.109 113.585 148.011 69.15 162.49C56.15 166.74 41.43 173.31 40.9 183.73C40.3 195.43 57.8 202.55 73.01 205.62C79.67 206.96 85.61 209.09 92.5 209.92C98.5436 210.642 104.645 210.749 110.71 210.24C101.63 206.19 94.47 199.83 90.71 192.48C98.93 197.527 107.13 202.59 115.31 207.67C115.419 203.45 117.095 199.423 120.01 196.37L126.49 212C129.154 211.317 131.865 210.829 134.6 210.54C136.43 210.45 138.16 210.91 139.98 210.97C145.98 211.2 152.43 210.38 158.39 209.79C156.895 210.162 155.433 210.657 154.02 211.27L145.15 214.27L129.73 219.51C122.09 222.11 114.46 224.82 106.73 227.24C102.88 228.46 99.12 229.89 95.46 231.39C88.2423 234.329 81.2616 237.819 74.58 241.83C70.08 244.54 65.38 248.3 66.48 252.51C67.58 256.72 73.7 258.79 79.11 260.09C98.1424 264.626 117.625 267.005 137.19 267.18C135.582 265.49 134.36 263.472 133.609 261.263C132.858 259.055 132.595 256.71 132.84 254.39C138.7 259.21 144.553 264.037 150.4 268.87C150.28 267.082 150.55 265.288 151.193 263.615C151.835 261.942 152.834 260.428 154.12 259.18C156.6 263.813 159.073 268.45 161.54 273.09C161.86 271.09 165.21 270.21 167.73 270.75C170.25 271.29 172.18 272.75 174.29 273.89C179.374 276.531 185.099 277.688 190.81 277.23C193.292 276.894 195.796 276.757 198.3 276.82C201.7 277.09 205.16 276.95 208.57 276.95C247.49 276.95 289.72 279.21 327.44 275.11C307.992 277.236 288.829 281.443 270.28 287.66C266.39 288.97 261.6 289.96 257.83 291.49C254.52 292.83 251.94 295.6 249.39 297.61L239.39 305.53C248.08 310.21 257.49 315.78 268.3 317.02C273.57 317.63 278.48 319.61 283.51 320.89C294.988 323.8 306.7 325.694 318.51 326.55C311.49 320.656 306.067 313.091 302.74 304.55C309.263 311.953 316.738 318.46 324.97 323.9C325.81 318.567 326.653 313.233 327.5 307.9C333.68 313.65 329.85 322.9 335.5 328.98C339.13 332.89 345.58 334.31 351.59 334.5C356.529 334.75 361.44 335.385 366.28 336.4C373.09 337.65 380.46 337.53 387.43 337.73C395.37 337.95 403.31 338.057 411.25 338.05C429.05 338.05 446.83 337.6 464.61 337.14C476.39 336.84 488.16 336.54 499.94 336.37C505.12 336.3 510.46 336.61 515.63 336.1C518.327 335.786 520.971 335.113 523.49 334.1C530.87 331.3 538.41 331.32 546.28 329.9C541.12 326.18 535.13 322.99 529.85 319.31C524.41 315.53 519.187 311.577 514.18 307.45C526.141 312.257 537.586 318.261 548.34 325.37C547.54 318.66 549.87 311.76 554.83 306.15C556.585 308.682 557.779 311.558 558.335 314.588C558.89 317.617 558.793 320.731 558.05 323.72C560.42 317.27 566.86 311.72 575.05 309.16C572.99 316.62 570.947 324.08 568.92 331.54C569.14 330.71 590.07 331.04 592.19 331.05C600.11 331.05 608.023 331.203 615.93 331.51C623.837 331.817 631.727 332.29 639.6 332.93C644.54 333.33 647.5 334.39 652.02 333.28C655.25 332.48 658.7 332.05 662.02 331.47L682.39 327.84C680.72 325.891 679.695 323.472 679.457 320.916C679.219 318.361 679.779 315.794 681.06 313.57C684.111 320.272 688.541 326.255 694.06 331.13C696.531 326.916 700.229 323.556 704.66 321.5C704.34 323.073 704.537 324.707 705.22 326.16C705.745 326.97 706.506 327.601 707.399 327.967C708.293 328.334 709.277 328.418 710.22 328.21C712.94 327.5 713.29 324.49 715.73 323.32C718.44 322.03 722.2 323.93 722.96 326.32C723.72 328.71 722.47 331.12 721.25 333.32C726.88 333.06 732.55 332.92 738.17 332.54C740.02 332.42 741.52 331.88 743.3 331.61C745.95 331.21 748.88 331.32 751.58 331.19C798.83 329.07 846.13 326.97 893.49 327.19C901.997 327.237 910.5 327.367 919 327.58C925.68 327.75 932.44 328.28 939.12 328.23C940.379 328.232 941.636 328.138 942.88 327.95C944.88 327.65 946.67 327.09 948.67 326.95C955.73 326.36 963.24 326.95 970.33 327.05C967.605 324.455 965.718 321.105 964.91 317.43C967.41 318.49 968.22 320.85 969.42 322.83C970.62 324.81 973.3 326.83 975.96 325.99C979.38 324.99 978.59 320.62 981.65 319.06C984.14 317.79 987.75 319.29 988.85 321.4C989.95 323.51 989.32 325.9 988.67 328.12C991.131 326.209 994.066 325.006 997.16 324.64C1000.41 324.33 1004.01 325.34 1005.62 327.51C1007.23 329.68 1006.14 332.9 1003.09 333.8C1010.92 334.58 1018.75 335.46 1026.59 336.16C1031.65 336.62 1036.08 335.44 1041.05 335.42C1048.64 335.42 1056.5 336.64 1064.05 337.32L1087.76 339.43C1111.62 341.55 1135.48 343.59 1159.39 345.21L1162.94 345.45C1182.2 346.72 1201.48 347.69 1220.8 348.21C1230.65 348.47 1240.5 348.603 1250.37 348.61C1259.88 348.61 1269.54 348.72 1279.04 348.18C1280.24 348.12 1281.34 347.85 1282.51 347.69C1283.96 347.582 1285.42 347.619 1286.86 347.8C1290.28 348.007 1293.72 347.863 1297.11 347.37C1301.47 346.753 1305.73 345.514 1309.74 343.69C1298.46 328.92 1292.74 311.69 1293.49 294.69C1299.7 307.161 1307.1 319.005 1315.58 330.06C1315.48 322.61 1318.91 315.17 1325.14 309.41C1325.79 318.047 1324.95 326.731 1322.64 335.08C1329.8 327.08 1337.83 318.52 1349.99 315.45C1347.04 322.457 1344.11 329.457 1341.19 336.45C1340.63 337.78 1340.1 339.26 1340.89 340.45C1341.8 341.87 1344.05 342.45 1346.07 342.76C1353.64 344.044 1361.34 344.256 1368.97 343.39C1373.87 342.78 1377.73 340.39 1382.7 339.87C1390.34 339.13 1398.02 338.62 1405.7 337.87C1420.34 336.43 1434.92 334.63 1449.35 332.22C1463.66 329.866 1477.83 326.752 1491.81 322.89L1492.65 322.65C1496.2 321.65 1499.8 320.55 1502.65 318.65C1505.5 316.75 1507.57 313.94 1507.09 311.09C1506.61 308.24 1503.95 306.09 1501.31 304.09C1484.16 291.38 1462.58 282.09 1439.31 277.31C1441.3 277.599 1443.3 277.786 1445.31 277.87L1452.49 278.53C1457.67 278.997 1462.85 279.457 1468.04 279.91C1478.04 280.777 1488.02 281.61 1497.98 282.41C1517.44 283.97 1536.87 285.76 1556.3 287.49C1566.22 288.37 1576.14 289.217 1586.07 290.03C1590.62 290.4 1595.18 290.82 1599.74 291.03C1600.58 291.085 1601.41 291.085 1602.25 291.03C1604.8 290.85 1607.07 290.17 1609.7 290.13L1621.7 289.99L1627.7 289.92C1618.57 288.42 1610.42 283.74 1606.07 277.5C1614.02 281.36 1621.95 285.223 1629.87 289.09C1630.02 287.26 1630.23 285.32 1631.72 283.87C1633.21 282.42 1636.49 281.87 1638.04 283.32C1639.59 284.77 1638.55 286.71 1637.51 288.32C1642.75 285.345 1648.19 282.761 1653.81 280.59C1655.96 279.75 1659.06 279.13 1660.44 280.59C1661.28 281.51 1660.93 282.76 1660.44 283.81C1658.67 287.631 1656.02 290.979 1652.71 293.58C1653.21 293.16 1656.47 293.25 1657.26 293.18L1662.26 292.74L1672.1 291.9C1675.01 291.65 1678.46 290.95 1681.37 291.24C1684.24 291.426 1687.12 291.393 1689.98 291.14C1696.98 290.78 1703.98 289.98 1710.98 290.02C1716.16 290.02 1721.34 290.02 1726.51 289.75C1736.82 289.282 1747.1 288.227 1757.29 286.59C1777.2 283.459 1796.67 277.984 1815.29 270.28C1817.83 269.22 1820.34 268.117 1822.81 266.97C1827.44 264.84 1832.36 262.12 1833.21 258.09C1833.89 254.85 1831.69 251.66 1829.28 248.9C1821.18 239.57 1809.9 231.77 1796.78 226.46C1806.78 227.1 1816.89 227.26 1826.94 226.9C1829.96 226.949 1832.98 226.667 1835.94 226.06C1839.29 225.18 1843.27 225.66 1846.78 225.7C1847.88 225.7 1849.16 225.7 1849.78 225.03C1850.69 224.15 1849.88 222.9 1849.11 221.95C1844.74 216.679 1842.49 209.962 1842.82 203.12C1848.53 208.777 1853.34 215.284 1857.06 222.41C1859.21 217.56 1864.86 213.68 1871.55 212.47C1870.06 215.803 1868.58 219.137 1867.09 222.47C1867.27 222.06 1872.09 221.47 1872.78 221.36L1878.72 220.2C1882.48 219.48 1886.3 218.84 1889.98 217.94C1897.47 216.107 1904.86 214.057 1912.13 211.79C1914.05 211.19 1915.97 210.58 1917.87 209.96L1918.82 209.64V168.31C1918.15 168.043 1917.46 167.783 1916.75 167.53C1890.97 158.01 1864.68 149.263 1837.87 141.29C1830.28 139.03 1821.79 137.4 1814.69 134.39C1813.21 133.628 1811.66 132.983 1810.08 132.46C1798.89 129.46 1785.58 128.65 1773.89 126.94C1749.47 123.373 1724.99 120.017 1700.46 116.87C1651.39 110.577 1602.12 105.143 1552.67 100.57C1533.44 98.7899 1513.55 95.3099 1494.2 97.5699C1485.35 98.6199 1477.48 97.6499 1468.73 96.2899C1444.25 92.5033 1419.73 88.7899 1395.18 85.1499C1356.88 79.4899 1318.49 74.0333 1280.02 68.7799C1299.52 69.0866 1319.01 69.4766 1338.48 69.95C1325.15 69.41 1311.79 68.89 1298.41 68.39C1281.28 67.7633 1264.15 67.1866 1247.02 66.6599C1238.49 66.3999 1229.96 66.0799 1221.43 65.8999C1218.25 65.8399 1215.43 66.2799 1212.25 65.7499C1211.25 65.5799 1199.81 64.0099 1199.83 64.6599C1199.77 63.1199 1199.72 61.5799 1199.66 60.0499C1196.25 60.0164 1192.86 60.6977 1189.73 62.0499C1189.34 58.8166 1188.95 55.5866 1188.55 52.3599C1184.79 54.9305 1182 58.6717 1180.59 62.9999C1175.95 60.1702 1172.12 56.1923 1169.46 51.45C1169.39 56.191 1170.67 60.8541 1173.16 64.89C1168.38 63.95 1164.24 64.5899 1159.46 64.7799C1154.25 64.9899 1148.46 64.1799 1143.26 64.0799C1094 63.1266 1044.74 62.5766 995.47 62.4299C990.83 62.4299 986.47 62.2499 981.97 61.7999C976.97 61.3199 971.26 62.4099 966.31 62.7999C965.88 61.0499 965.46 59.3099 965.03 57.5599C961.429 58.2806 958.091 59.9635 955.37 62.4299C953.584 59.9514 950.981 58.1811 948.02 57.4299L953.02 62.5399L948.37 62.8699C945.218 63.0834 942.052 62.9795 938.92 62.5599C930.45 61.6099 920.92 62.5599 912.31 62.6099C901.257 62.6766 890.203 62.7666 879.15 62.8799C833.103 63.3399 787.06 64.1533 741.02 65.3199C687.28 66.6533 633.56 68.4833 579.86 70.8099C562.293 73.3833 544.74 75.9999 527.2 78.6599C478.107 86.0866 429.14 93.8666 380.3 102ZM534.3 155.16C535.81 149.88 541.22 145.09 548.45 142.67C549.09 142.46 549.13 154.76 549.08 155.75C563.38 154.08 577.01 150.49 591.5 149.35C613.04 147.67 634.67 146.57 656.27 145.5C699.63 143.37 743.05 142.04 786.45 141.22C800.77 140.947 815.103 140.723 829.45 140.55C826.76 140.09 826.88 140.87 824.19 140.41C824.46 138.16 830.43 137.08 835.27 136.59C854.557 134.63 873.89 132.903 893.27 131.41C902.983 130.663 912.703 129.977 922.43 129.35C926.66 129.07 930.84 128.58 935.02 128.92C942.326 129.443 949.669 128.856 956.8 127.18C951.94 126.18 949.32 121.91 951.7 118.89C955.549 123.694 960.306 127.694 965.7 130.66C968.033 126.4 970.34 122.137 972.62 117.87C974.5 121.557 976.373 125.25 978.24 128.95C978.793 126.722 979.881 124.662 981.41 122.95C982.477 121.932 983.745 121.149 985.134 120.653C986.522 120.157 988 119.958 989.47 120.07C992.66 120.34 995.31 122.74 994 124.7C1004.88 124.7 1015.77 125.19 1026.57 124.98C1088.92 123.76 1155.85 123.31 1217.14 130.57C1227.14 131.75 1236.97 133.24 1246.47 135.16C1250.47 135.97 1255.47 136.73 1258.87 138.16C1263.41 140.01 1262.03 142.38 1260.18 144.59C1255.18 150.5 1244.54 155.22 1230.76 156.59C1236.34 156.04 1243.27 156.45 1249.02 156.44C1256.35 156.44 1263.69 156.457 1271.02 156.49C1306.49 156.78 1342.17 156.32 1378.24 158.49C1427.13 161.44 1476.01 164.75 1524.65 169.6C1533.77 170.51 1544.35 170.04 1551.65 174.05C1554.02 175.34 1559.08 176.67 1560.65 174.05C1561.48 172.66 1560.1 171.14 1558.96 169.82C1554.88 165.1 1553.41 159.42 1554.96 154.16C1558.34 159.42 1561.71 164.683 1565.06 169.95C1566.46 166.07 1570.41 162.68 1575.68 160.85C1575.44 165.162 1573.99 169.32 1571.5 172.85C1573.73 170.64 1578.87 169.92 1582.07 171.63C1585.27 173.34 1585.07 177.24 1581.56 178.43C1584.13 177.57 1589.69 178.23 1592.5 178.43C1596.32 178.71 1599.89 179.52 1603.65 180.01C1605.95 180.3 1608.18 180.14 1610.49 180.26C1614.43 180.604 1618.34 181.151 1622.22 181.9C1649.14 186.11 1676.29 191.54 1697.97 200.72C1703.33 202.99 1708.65 205.82 1709.06 208.99C1709.33 211.04 1707.45 212.91 1704.9 214.41C1699.14 217.612 1692.65 219.246 1686.06 219.15C1683.85 219.15 1663.77 221.65 1663.41 220.15C1662.79 217.47 1662.16 214.8 1661.54 212.15C1657.47 213.27 1654.43 215.87 1653.72 218.82C1651.42 215.167 1649.11 211.5 1646.8 207.82C1643.64 211.1 1649.2 215.97 1646.47 219.43C1643.54 223.12 1636.29 221.22 1631.47 221.43C1616.03 222.02 1600.14 221.24 1584.65 220.72C1571.13 220.26 1557.63 219.63 1544.14 218.83C1581.63 221.547 1618.96 226.173 1655.98 232.69C1665.3 234.34 1675.91 236.76 1678.89 241.22C1681.87 245.68 1676.3 248.64 1670.98 250.22C1653.46 255.53 1631.28 255.49 1612.37 256.04C1584.19 256.85 1555.93 256.61 1527.74 256.21C1513.95 256.023 1500.16 255.78 1486.36 255.48C1480.05 255.35 1473.52 255.55 1467.36 254.59C1465.08 254.21 1439.19 252.74 1439.16 252.81L1447.16 238.87C1447.69 237.95 1448.16 236.73 1447.03 236.06C1446.14 235.659 1445.15 235.54 1444.19 235.72C1436.19 236.51 1429.08 240.34 1426.11 245.45C1427.07 241.784 1426.87 237.911 1425.55 234.36C1419.92 237.06 1417.02 242.15 1418.42 246.81C1412.5 241.937 1406.56 237.08 1400.6 232.24C1403.08 239.45 1409.7 246.01 1418.69 250.18C1393.33 254.34 1367.48 253.48 1341.53 253.11C1266.38 252.03 1190.38 249.64 1116.99 236.94C1110.99 235.94 1104.4 234.53 1101.85 231.77C1099.85 229.58 1102.85 226.61 1107.17 226.07C1105.52 226.07 1103.9 226.07 1103.71 226.07L1092.85 225.97C1090.85 225.97 1089.12 225.85 1087.24 225.77C1084.87 225.69 1082.66 225.7 1080.24 225.77C1054.24 226.62 1028.18 227.16 1002.13 227.77C958.13 228.85 914.53 228.77 870.85 229.38C861.4 229.51 851.97 229.99 842.65 229.16C837.93 228.74 832.65 229.8 827.95 230.28L812.14 231.91C815.302 229.015 817.92 225.578 819.87 221.76C820.62 220.25 820.72 218.05 818.46 217.66C817.395 217.567 816.325 217.76 815.36 218.22C808.728 220.747 802.607 224.45 797.29 229.15C795.467 222.952 795.791 216.32 798.21 210.33C792.33 214.68 789.42 220.79 790.4 226.61C784.4 218.943 778.373 211.277 772.32 203.61C774.577 214.126 778.942 224.076 785.15 232.86C777.15 233.1 769.15 232.86 761.15 233.23C733.86 234.51 706.49 235.39 679.15 235.53C660.15 235.63 641.15 235.37 622.15 234.62C612.65 234.253 603.16 233.753 593.68 233.12C590.361 233.075 587.09 232.328 584.08 230.93C583.23 230.56 573.25 229 573.65 230.51C572.497 226.21 571.343 221.913 570.19 217.62C566.03 219.06 562.95 221.88 562.12 224.99C556.513 222.19 550.89 219.4 545.25 216.62C544.01 221.21 546.31 226.13 551.16 229.32C545.891 229.455 540.62 229.121 535.41 228.32C530.62 227.57 526.73 225.96 521.94 225.18C510.94 223.4 498.09 219.4 502.13 213.89C503.92 211.45 508.67 209.68 513.26 208.17C534.771 201.246 556.927 196.515 579.39 194.05C558.83 196.4 538.3 198.89 517.66 200.83C507.25 201.83 496.66 202.83 486.23 203.23C482.02 203.38 477.88 202.41 473.55 202.42C468.739 202.433 463.94 202.881 459.21 203.76C461.52 199.373 462.301 194.341 461.43 189.46C453.94 191.39 448.09 196.09 446.57 201.37C445.697 197.03 444.833 192.697 443.98 188.37C442.784 189.696 441.929 191.292 441.488 193.022C441.047 194.752 441.034 196.564 441.45 198.3C433.03 194.34 424.887 190.123 417.02 185.65C419.7 192.9 425.81 199.48 434.23 204.22C425.48 205.6 418.53 204.94 409.91 203.92C403.12 203.11 396.12 203.79 389.27 203.24C382.16 202.68 375.1 202.06 368.08 201.01C358.869 199.638 349.746 197.725 340.76 195.28C335.96 193.96 330.38 191.56 330.68 187.7C330.98 183.84 336.57 181.98 341.31 180.85C398.304 167.278 456.545 159.621 515.11 158C514.003 156.179 512.756 154.447 511.38 152.82C510.06 151.47 509.66 149.65 509.07 148.03C507.707 144.239 506.63 140.352 505.85 136.4C505.85 136.16 505.76 135.93 505.72 135.69C511.846 142.271 518.636 148.203 525.98 153.39C525.677 150.877 525.884 148.329 526.589 145.897C527.293 143.466 528.481 141.202 530.08 139.24L534.3 155.16Z" fill="#FFF6EF"/>
<path d="M525.98 153.34C518.636 148.153 511.846 142.221 505.72 135.64C505.72 135.88 505.81 136.11 505.85 136.35C506.629 140.309 507.706 144.203 509.07 148C509.66 149.62 510.07 151.44 511.38 152.79C512.756 154.417 514.003 156.149 515.11 157.97C456.544 159.604 398.302 167.274 341.31 180.86C336.57 181.99 330.97 183.98 330.68 187.71C330.39 191.44 335.96 193.97 340.76 195.29C349.747 197.728 358.869 199.634 368.08 201C375.08 202.05 382.16 202.67 389.27 203.23C396.12 203.78 403.12 203.1 409.91 203.91C418.53 204.91 425.48 205.59 434.23 204.21C425.81 199.47 419.7 192.89 417.02 185.64C424.873 190.113 433.017 194.33 441.45 198.29C441.034 196.554 441.047 194.742 441.488 193.012C441.929 191.282 442.784 189.685 443.98 188.36C444.84 192.7 445.703 197.033 446.57 201.36C448.09 196.08 453.94 191.36 461.43 189.45C462.301 194.331 461.52 199.363 459.21 203.75C463.94 202.871 468.739 202.423 473.55 202.41C477.88 202.41 482.02 203.41 486.23 203.22C496.7 202.85 507.23 201.79 517.66 200.82C538.3 198.88 558.83 196.39 579.39 194.04C556.909 196.515 534.736 201.259 513.21 208.2C508.62 209.71 503.87 211.48 502.08 213.92C498.08 219.43 510.85 223.43 521.89 225.21C526.68 225.99 530.57 227.6 535.36 228.35C540.57 229.151 545.841 229.485 551.11 229.35C546.26 226.16 543.96 221.24 545.2 216.65C550.84 219.43 556.463 222.22 562.07 225.02C562.9 221.91 565.98 219.09 570.14 217.65C571.3 221.95 572.453 226.247 573.6 230.54C573.2 229.03 583.18 230.59 584.03 230.96C587.04 232.358 590.311 233.105 593.63 233.15C603.103 233.783 612.593 234.283 622.1 234.65C641.1 235.4 660.1 235.65 679.1 235.56C706.4 235.42 733.77 234.56 761.1 233.26C769.1 232.88 777.1 233.13 785.1 232.89C778.892 224.106 774.527 214.156 772.27 203.64C778.33 211.287 784.357 218.953 790.35 226.64C789.35 220.82 792.28 214.71 798.16 210.36C795.741 216.35 795.417 222.982 797.24 229.18C802.557 224.479 808.678 220.777 815.31 218.25C816.275 217.79 817.345 217.597 818.41 217.69C820.67 218.08 820.57 220.28 819.82 221.79C817.87 225.608 815.252 229.045 812.09 231.94L827.9 230.31C832.58 229.83 837.9 228.77 842.6 229.19C851.92 230.02 861.35 229.54 870.8 229.41C914.48 228.83 958.1 228.88 1002.08 227.8C1028.08 227.16 1054.18 226.62 1080.19 225.8C1082.61 225.72 1084.82 225.71 1087.19 225.8C1089.07 225.88 1090.83 225.99 1092.8 226L1103.66 226.1C1103.85 226.1 1105.47 226.1 1107.12 226.1C1108.16 225.976 1109.22 225.996 1110.26 226.16C1110.39 226.167 1110.52 226.187 1110.64 226.22L1110.26 226.16C1109.62 226.1 1108.37 226.09 1107.12 226.1C1102.81 226.64 1099.77 229.61 1101.8 231.8C1104.35 234.56 1110.92 235.93 1116.94 236.97C1190.33 249.67 1266.33 252.06 1341.48 253.14C1367.48 253.51 1393.28 254.37 1418.64 250.21C1409.64 246.04 1403.03 239.48 1400.55 232.27C1406.51 237.117 1412.45 241.973 1418.37 246.84C1416.97 242.18 1419.87 237.09 1425.5 234.39C1426.82 237.941 1427.02 241.814 1426.06 245.48C1429.06 240.37 1436.14 236.54 1444.14 235.75C1445.1 235.57 1446.09 235.689 1446.98 236.09C1448.08 236.76 1447.64 237.98 1447.11 238.9L1439.11 252.84C1439.11 252.77 1465.03 254.24 1467.31 254.62C1473.48 255.62 1480.01 255.38 1486.31 255.51C1500.1 255.803 1513.89 256.047 1527.69 256.24C1555.88 256.64 1584.14 256.88 1612.32 256.07C1631.23 255.52 1653.41 255.56 1670.93 250.25C1676.25 248.63 1681.83 245.68 1678.84 241.25C1675.85 236.82 1665.25 234.37 1655.93 232.72C1618.91 226.203 1581.58 221.577 1544.09 218.86C1537.48 218.467 1530.87 218.04 1524.27 217.58C1530.88 217.94 1537.49 218.38 1544.09 218.86C1557.58 219.647 1571.09 220.277 1584.6 220.75C1600.09 221.27 1615.98 222.05 1631.42 221.46C1636.25 221.27 1643.5 223.17 1646.42 219.46C1649.15 216 1643.59 211.13 1646.75 207.85C1649.07 211.497 1651.38 215.163 1653.67 218.85C1654.38 215.85 1657.42 213.3 1661.49 212.18C1662.11 214.85 1662.74 217.52 1663.36 220.18C1663.72 221.71 1683.8 219.18 1686.01 219.18C1692.6 219.276 1699.09 217.642 1704.85 214.44C1707.4 212.94 1709.28 211.07 1709.01 209.02C1708.6 205.85 1703.28 203.02 1697.92 200.75C1676.24 191.57 1649.09 186.14 1622.17 181.93C1618.29 181.181 1614.38 180.634 1610.44 180.29C1608.13 180.17 1605.9 180.29 1603.6 180.04C1599.84 179.55 1596.27 178.74 1592.45 178.46C1589.64 178.26 1584.08 177.6 1581.51 178.46C1585.06 177.27 1585.22 173.36 1582.02 171.66C1578.82 169.96 1573.68 170.66 1571.45 172.88C1573.94 169.35 1575.39 165.192 1575.63 160.88C1570.36 162.71 1566.41 166.1 1565.01 169.98C1561.68 164.72 1558.31 159.457 1554.91 154.19C1553.37 159.45 1554.84 165.13 1558.91 169.85C1560.05 171.17 1561.43 172.69 1560.6 174.08C1559.03 176.7 1553.97 175.37 1551.6 174.08C1544.27 170.08 1533.69 170.54 1524.6 169.63C1475.96 164.78 1427.08 161.47 1378.19 158.52C1342.12 156.34 1306.44 156.8 1270.97 156.52C1263.64 156.46 1256.3 156.443 1248.97 156.47C1243.22 156.47 1236.29 156.07 1230.71 156.62C1244.49 155.27 1255.16 150.55 1260.13 144.62C1261.98 142.41 1263.36 140.04 1258.82 138.19C1255.41 136.8 1250.44 136.04 1246.42 135.19C1236.92 133.27 1227.07 131.78 1217.09 130.6C1155.8 123.34 1088.87 123.79 1026.52 125.01C1015.72 125.22 1004.83 124.74 993.95 124.73C995.26 122.73 992.61 120.37 989.42 120.1C987.95 119.988 986.472 120.187 985.084 120.683C983.695 121.179 982.427 121.962 981.36 122.98C979.831 124.692 978.743 126.752 978.19 128.98C976.323 125.287 974.45 121.593 972.57 117.9C970.29 122.167 967.983 126.43 965.65 130.69C960.256 127.724 955.499 123.724 951.65 118.92C949.27 121.92 951.89 126.18 956.75 127.21C949.62 128.886 942.276 129.473 934.97 128.95C930.79 128.61 926.61 129.1 922.38 129.38C912.647 130 902.927 130.687 893.22 131.44C873.833 132.927 854.5 134.653 835.22 136.62C830.38 137.11 824.41 138.19 824.14 140.44C826.83 140.9 826.71 140.12 829.4 140.58C815.08 140.76 800.747 140.983 786.4 141.25C743 142.07 699.58 143.4 656.22 145.53C634.62 146.6 612.99 147.7 591.45 149.38C576.96 150.52 563.33 154.11 549.03 155.78C549.03 154.78 549.03 142.49 548.4 142.7C541.17 145.12 535.76 149.91 534.25 155.19L530.02 139.19C528.431 141.156 527.255 143.423 526.561 145.854C525.866 148.285 525.669 150.831 525.98 153.34Z" fill="white"/>
<path d="M1912.31 212.09C1905.03 214.35 1897.65 216.4 1890.16 218.24C1886.48 219.14 1882.66 219.78 1878.9 220.5L1872.96 221.66C1872.26 221.79 1867.45 222.36 1867.27 222.77C1868.75 219.436 1870.24 216.103 1871.73 212.77C1865.04 213.98 1859.39 217.86 1857.24 222.71C1853.52 215.584 1848.71 209.077 1843 203.42C1842.67 210.262 1844.92 216.979 1849.29 222.25C1850.06 223.2 1850.87 224.45 1849.96 225.33C1849.29 225.97 1847.96 226.01 1846.96 226C1843.45 226 1839.47 225.48 1836.12 226.36C1833.16 226.967 1830.14 227.249 1827.12 227.2C1817.07 227.56 1806.99 227.4 1796.96 226.76C1810.08 232.07 1821.36 239.87 1829.46 249.2C1831.87 251.96 1834.07 255.2 1833.39 258.39C1832.54 262.39 1827.62 265.14 1822.99 267.27C1820.52 268.416 1818.01 269.52 1815.47 270.58C1796.85 278.284 1777.38 283.758 1757.47 286.89C1747.28 288.527 1737 289.582 1726.69 290.05C1721.52 290.29 1716.34 290.34 1711.16 290.32C1704.16 290.32 1697.16 291.08 1690.16 291.44C1687.3 291.693 1684.42 291.726 1681.55 291.54C1678.64 291.25 1675.19 291.95 1672.28 292.2L1662.44 293.04L1657.44 293.48C1656.65 293.55 1653.39 293.48 1652.89 293.88C1656.2 291.279 1658.85 287.931 1660.62 284.11C1661.09 283.06 1661.44 281.81 1660.62 280.89C1659.24 279.39 1656.14 280.01 1653.99 280.89C1648.37 283.061 1642.93 285.645 1637.69 288.62C1638.69 287.04 1639.69 285.01 1638.22 283.62C1636.75 282.23 1633.4 282.73 1631.9 284.17C1630.4 285.61 1630.2 287.56 1630.05 289.39C1622.13 285.523 1614.2 281.66 1606.25 277.8C1610.6 284.04 1618.75 288.72 1627.88 290.22L1621.88 290.29L1609.88 290.43C1607.25 290.43 1604.98 291.15 1602.43 291.33C1601.59 291.385 1600.76 291.385 1599.92 291.33C1595.36 291.07 1590.8 290.65 1586.25 290.33C1576.32 289.53 1566.4 288.683 1556.48 287.79C1537.05 286.06 1517.62 284.27 1498.16 282.71C1488.16 281.91 1478.18 281.076 1468.22 280.21C1463.04 279.756 1457.86 279.296 1452.67 278.83L1445.49 278.17C1443.48 278.085 1441.48 277.899 1439.49 277.61C1462.76 282.35 1484.34 291.68 1501.49 304.39C1504.13 306.39 1506.81 308.6 1507.27 311.39C1507.73 314.18 1505.7 317.07 1502.83 318.95C1499.96 320.83 1496.36 321.95 1492.83 322.95L1491.99 323.19C1478.01 327.052 1463.84 330.166 1449.53 332.52C1435.1 334.93 1420.53 336.73 1405.88 338.17C1398.24 338.91 1390.56 339.42 1382.88 340.17C1377.88 340.65 1374.05 343.08 1369.15 343.69C1361.53 344.556 1353.82 344.344 1346.25 343.06C1344.25 342.72 1341.98 342.17 1341.07 340.75C1340.28 339.51 1340.81 338.03 1341.37 336.75C1344.29 329.743 1347.22 322.743 1350.17 315.75C1338.01 318.82 1329.98 327.35 1322.82 335.38C1325.13 327.031 1325.97 318.347 1325.32 309.71C1319.09 315.47 1315.66 322.91 1315.76 330.36C1307.28 319.305 1299.88 307.46 1293.67 294.99C1292.89 312.05 1298.67 329.25 1309.92 343.99C1305.91 345.814 1301.65 347.053 1297.29 347.67C1293.9 348.163 1290.46 348.307 1287.04 348.1C1285.6 347.918 1284.14 347.882 1282.69 347.99C1281.52 348.15 1280.42 348.42 1279.22 348.48C1269.72 349.02 1260.06 348.91 1250.55 348.91C1240.69 348.91 1230.83 348.776 1220.98 348.51C1201.66 347.99 1182.38 347.02 1163.12 345.75L1159.57 345.51C1135.66 343.89 1111.8 341.85 1087.94 339.73L1064.23 337.62C1056.69 336.94 1048.83 335.7 1041.23 335.72C1036.23 335.72 1031.83 336.92 1026.77 336.46C1018.93 335.76 1011.1 334.88 1003.27 334.1C1006.27 333.2 1007.41 329.98 1005.8 327.81C1004.19 325.64 1000.59 324.63 997.34 324.94C994.246 325.306 991.311 326.509 988.85 328.42C989.5 326.2 990.13 323.82 989.03 321.7C987.93 319.58 984.32 318.09 981.83 319.36C978.77 320.92 979.56 325.24 976.14 326.29C973.48 327.09 970.79 325.1 969.6 323.13C968.41 321.16 967.6 318.79 965.09 317.73C965.898 321.405 967.785 324.755 970.51 327.35C963.42 327.27 955.91 326.66 948.85 327.25C946.85 327.41 945.02 327.97 943.06 328.25C941.816 328.438 940.559 328.532 939.3 328.53C932.62 328.58 925.86 328.05 919.18 327.88C910.68 327.66 902.177 327.53 893.67 327.49C846.31 327.22 799.01 329.32 751.76 331.49C749.06 331.62 746.13 331.49 743.48 331.91C741.7 332.18 740.2 332.72 738.35 332.84C732.73 333.22 727.06 333.36 721.43 333.62C722.65 331.38 723.9 328.94 723.14 326.62C722.38 324.3 718.62 322.35 715.91 323.62C713.47 324.79 713.12 327.8 710.4 328.51C709.457 328.718 708.473 328.634 707.579 328.267C706.686 327.901 705.925 327.27 705.4 326.46C704.717 325.007 704.52 323.373 704.84 321.8C700.409 323.856 696.711 327.216 694.24 331.43C688.721 326.555 684.291 320.572 681.24 313.87C680.001 316.043 679.449 318.54 679.654 321.033C679.859 323.526 680.813 325.898 682.39 327.84L661.95 331.43C658.64 332.01 655.19 332.43 651.95 333.24C647.43 334.35 644.47 333.24 639.53 332.89C631.663 332.223 623.773 331.75 615.86 331.47C607.947 331.19 600.03 331.033 592.11 331C589.99 331 569.06 330.66 568.84 331.49C570.84 324.03 572.883 316.57 574.97 309.11C566.79 311.69 560.35 317.22 557.97 323.67C558.713 320.681 558.81 317.567 558.255 314.538C557.699 311.508 556.505 308.631 554.75 306.1C549.75 311.71 547.46 318.61 548.26 325.32C537.506 318.211 526.061 312.207 514.1 307.4C519.1 311.52 524.323 315.473 529.77 319.26C535.05 322.94 541.04 326.13 546.2 329.85C538.33 331.27 530.79 331.25 523.41 334.05C520.891 335.063 518.247 335.736 515.55 336.05C510.38 336.56 505.04 336.25 499.86 336.32C488.08 336.49 476.31 336.79 464.53 337.09C446.75 337.55 428.97 338 411.18 338C403.227 338 395.283 337.893 387.35 337.68C380.35 337.48 373.01 337.6 366.2 336.35C361.36 335.335 356.449 334.7 351.51 334.45C345.51 334.26 339.05 332.84 335.42 328.93C329.78 322.93 333.61 313.6 327.42 307.85C326.567 313.183 325.723 318.516 324.89 323.85C316.658 318.409 309.183 311.903 302.66 304.5C305.987 313.041 311.41 320.606 318.43 326.5C306.62 325.643 294.908 323.749 283.43 320.84C278.43 319.56 273.49 317.58 268.22 316.97C257.41 315.73 248 310.16 239.31 305.48L249.31 297.56C251.86 295.56 254.44 292.78 257.75 291.44C261.52 289.91 266.31 288.92 270.2 287.61C288.749 281.393 307.912 277.185 327.36 275.06C289.64 279.16 247.41 276.86 208.49 276.9C205.08 276.9 201.62 277.04 198.22 276.77C195.716 276.707 193.212 276.844 190.73 277.18C185.019 277.638 179.294 276.481 174.21 273.84C172.1 272.68 170.21 271.23 167.65 270.7C165.09 270.17 161.78 271.09 161.46 273.04C158.993 268.373 156.52 263.736 154.04 259.13C152.754 260.378 151.755 261.892 151.113 263.565C150.47 265.238 150.2 267.031 150.32 268.82C144.48 263.986 138.627 259.16 132.76 254.34C132.515 256.66 132.778 259.005 133.529 261.213C134.28 263.421 135.502 265.44 137.11 267.13C117.545 266.955 98.0624 264.576 79.03 260.04C73.62 258.74 67.5 256.62 66.4 252.46C65.3 248.3 70 244.46 74.5 241.78C81.1816 237.769 88.1623 234.279 95.38 231.34C99.04 229.84 102.8 228.41 106.65 227.19C114.35 224.77 121.98 222.06 129.65 219.46L145.07 214.22L153.94 211.22C155.353 210.607 156.815 210.112 158.31 209.74C152.31 210.33 145.92 211.15 139.9 210.92C138.08 210.86 136.35 210.4 134.52 210.49C131.811 210.799 129.127 211.304 126.49 212L120.04 196.37C117.125 199.422 115.449 203.45 115.34 207.67C107.16 202.59 98.96 197.526 90.74 192.48C94.47 199.83 101.63 206.19 110.74 210.24C104.675 210.749 98.5736 210.642 92.53 209.92C85.64 209.09 79.7 206.92 73.04 205.62C57.83 202.55 40.33 195.43 40.93 183.73C41.46 173.31 56.18 166.73 69.18 162.49C113.607 147.994 159.122 137.076 205.29 129.84C210.57 129 216.14 127.75 221.55 127.72C225.09 127.72 228.33 128.22 231.88 127.72C243.88 126.2 255.88 123.43 267.78 121.32C292.08 117 316.413 112.763 340.78 108.61C353.947 106.363 367.123 104.143 380.31 101.95C429.137 93.8298 478.117 86.0398 527.25 78.5798C544.79 75.9131 562.343 73.2965 579.91 70.7298L582.58 70.3298C387.446 60.7345 191.844 71.6847 -1 103V433C0.333333 439.56 1.69667 446.123 3.09 452.69C641.09 416.16 1280.66 412.52 1919 449.87V209.94L1918.05 210.26C1916.15 210.88 1914.23 211.49 1912.31 212.09Z" fill="#FFEBDA"/>
<path d="M1338.66 69.9998C1319.19 69.5265 1299.71 69.1365 1280.2 68.8298C1318.67 74.0832 1357.05 79.5399 1395.36 85.1999C1419.91 88.8265 1444.43 92.5398 1468.91 96.3398C1477.65 97.6998 1485.53 98.6698 1494.38 97.6198C1513.73 95.3198 1533.62 98.7998 1552.85 100.62C1602.29 105.187 1651.55 110.62 1700.64 116.92C1725.17 120.06 1749.65 123.417 1774.07 126.99C1785.76 128.7 1799.07 129.49 1810.26 132.51C1811.84 133.033 1813.39 133.678 1814.87 134.44C1821.97 137.44 1830.46 139.08 1838.05 141.34C1864.83 149.3 1891.12 158.047 1916.93 167.58C1917.6 167.833 1918.29 168.093 1919 168.36V109.4C1726.5 87.3798 1533.11 74.6698 1338.66 69.9998Z" fill="#FFF0E3"/>
<defs>
<linearGradient id="paint0_linear_7712_44" x1="90.06" y1="84.88" x2="506.41" y2="159.9" gradientUnits="userSpaceOnUse">
<stop offset="0.22" stop-color="#FFF5ED"/>
<stop offset="0.71" stop-color="#FFE5CE"/>
</linearGradient>
<linearGradient id="paint1_linear_7712_44" x1="1689.19" y1="36.4299" x2="1647.93" y2="161.46" gradientUnits="userSpaceOnUse">
<stop offset="0.1" stop-color="#FFF5ED"/>
<stop offset="0.56" stop-color="#FFE5CE"/>
</linearGradient>
</defs>
</svg>
