<svg width="27" height="16" viewBox="0 0 27 16" fill="none" xmlns="http://www.w3.org/2000/svg">
<path d="M26.2578 14.3941C26.2578 14.2904 26.154 14.2904 26.154 14.1866C25.7389 13.3564 24.8049 12.3186 23.5595 11.177C22.9368 10.6581 22.6255 10.243 22.4179 10.0354C22.1066 9.62033 22.1066 9.309 22.2104 8.89389C22.3142 8.58255 22.7293 8.06365 23.4557 7.12964C23.8708 6.61074 24.0784 6.29942 24.3897 5.98808C25.9464 3.91251 26.6729 2.56338 26.4653 1.9407L26.3616 1.83694C26.2578 1.73316 26.154 1.62938 25.9464 1.62938C25.7389 1.5256 25.4275 1.5256 25.1162 1.62938H21.1726C21.0688 1.62938 21.0688 1.62938 20.8613 1.62938C20.7575 1.62938 20.6537 1.62938 20.6537 1.62938H20.5499H20.4462L20.3424 1.73315C20.2386 1.83693 20.2386 1.83693 20.2386 1.9407C19.8235 3.08227 19.3046 4.01628 18.7857 5.05406C18.4744 5.57296 18.163 6.09186 17.8517 6.50697C17.5404 6.92209 17.3328 7.23342 17.1252 7.44098C16.9177 7.64853 16.7101 7.75231 16.6063 7.95987C16.5026 8.06365 16.295 8.16743 16.295 8.06365C16.1912 8.06365 16.0874 8.06365 16.0874 7.95987C15.9837 7.85609 15.8799 7.75231 15.7761 7.64853C15.6723 7.54475 15.6723 7.33719 15.5685 7.12964C15.5685 6.92208 15.5685 6.71452 15.5685 6.61074C15.5685 6.50697 15.5685 6.19564 15.5685 5.98808C15.5685 5.67675 15.5685 5.46918 15.5685 5.3654C15.5685 5.05407 15.5685 4.63896 15.5685 4.22385C15.5685 3.80873 15.5685 3.49739 15.5685 3.28983C15.5685 3.08227 15.5685 2.77094 15.5685 2.56338C15.5685 2.25205 15.5685 2.04448 15.5685 1.9407C15.5685 1.83693 15.4648 1.62937 15.4648 1.5256C15.361 1.42182 15.2572 1.31804 15.1534 1.21426C15.0497 1.11048 14.8421 1.11048 14.7383 1.0067C14.2194 0.902924 13.5968 0.799149 12.8703 0.799149C11.2099 0.799149 10.0683 0.90293 9.65318 1.11049C9.44562 1.21427 9.23807 1.31804 9.13429 1.5256C8.92673 1.73315 8.92672 1.83694 9.0305 1.83694C9.5494 1.94071 9.96452 2.14826 10.1721 2.4596L10.2759 2.66717C10.3796 2.77095 10.3796 2.97849 10.4834 3.28983C10.5872 3.60117 10.5872 3.9125 10.5872 4.32762C10.5872 4.95029 10.5872 5.57297 10.5872 5.98808C10.5872 6.50697 10.4834 6.8183 10.4834 7.12964C10.4834 7.44097 10.3796 7.64854 10.2759 7.75232C10.1721 7.95987 10.1721 8.06365 10.0683 8.06365C10.0683 8.06365 10.0683 8.16742 9.9645 8.16742C9.86073 8.16742 9.75695 8.27121 9.5494 8.27121C9.44562 8.27121 9.23807 8.16743 9.13429 8.06365C8.92673 7.95988 8.71917 7.75232 8.61539 7.54476C8.40784 7.3372 8.20027 7.02586 7.99272 6.61074C7.78516 6.19563 7.47381 5.78052 7.26625 5.15785L7.05871 4.74274C6.95494 4.53518 6.74738 4.12006 6.53982 3.60117C6.33226 3.08228 6.1247 2.66717 5.91714 2.14827C5.81336 1.94072 5.7096 1.83693 5.60582 1.73315H5.50203C5.50203 1.73315 5.39824 1.62938 5.29446 1.62938C5.19069 1.62938 5.08692 1.5256 4.98314 1.5256H1.2471C0.831988 1.5256 0.624434 1.62937 0.520655 1.73315L0.41687 1.83694C0.41687 1.83694 0.41687 1.94071 0.41687 2.04449C0.41687 2.14827 0.416876 2.25204 0.520655 2.4596C1.03955 3.70494 1.66222 4.95029 2.28489 6.19564C2.90756 7.3372 3.53024 8.37499 3.94535 9.10144C4.46425 9.82789 4.87936 10.5543 5.39825 11.177C5.91714 11.7997 6.22847 12.2148 6.33225 12.4224C6.53981 12.6299 6.64358 12.7337 6.74736 12.8375L7.05871 13.1488C7.26627 13.3564 7.5776 13.6677 7.99272 13.979C8.40783 14.2904 8.92672 14.6017 9.44561 14.913C9.9645 15.2244 10.5872 15.4319 11.2099 15.6395C11.9363 15.8471 12.559 15.9508 13.1816 15.8471H14.7383C15.0497 15.8471 15.2572 15.7433 15.4648 15.5357L15.5685 15.4319C15.5685 15.3282 15.6723 15.3282 15.6723 15.2244C15.6723 15.1206 15.6723 15.0168 15.6723 14.8093C15.6723 14.3942 15.6723 14.0828 15.7761 13.7715C15.8799 13.4601 15.8799 13.2526 15.9837 13.045C16.0875 12.8375 16.1912 12.7337 16.295 12.6299C16.3988 12.5261 16.5026 12.4224 16.5026 12.4224H16.6063C16.8139 12.3186 17.1252 12.4224 17.3328 12.6299C17.6441 12.8375 17.9555 13.1488 18.163 13.4601C18.3706 13.7715 18.6819 14.0828 19.097 14.4979C19.5122 14.913 19.8235 15.2244 20.031 15.3282L20.3424 15.5357C20.5499 15.6395 20.7575 15.7433 21.0688 15.8471C21.3802 15.9508 21.5877 15.9508 21.7953 15.9508L25.3238 15.8471C25.6351 15.8471 25.9464 15.7433 26.154 15.6395C26.3615 15.5357 26.4653 15.4319 26.4653 15.2244C26.4653 15.1206 26.4653 14.913 26.4653 14.8093C26.2577 14.6017 26.2578 14.4979 26.2578 14.3941Z" fill="white"/>
</svg>
